<?xml version="1.0" standalone="no"?>
<!DOCTYPE svg PUBLIC "-//W3C//DTD SVG 20010904//EN"
"http://www.w3.org/TR/2001/REC-SVG-20010904/DTD/svg10.dtd">
<svg version="1.0" xmlns="http://www.w3.org/2000/svg"
width="816.000000pt" height="707.000000pt" viewBox="0 0 816.000000 707.000000"
preserveAspectRatio="xMidYMid meet">

<defs>
<filter id="gold-glow" x="-5000%" y="-5000%" width="10000%" height="10000%">
<feFlood result="flood" flood-color="#FFB700" flood-opacity="1"></feFlood>
<feComposite in="flood" result="mask" in2="SourceGraphic" operator="in"></feComposite>
<feMorphology in="mask" result="dilated" operator="dilate" radius="10"></feMorphology>
<feGaussianBlur in="dilated" result="blurred" stdDeviation="20"></feGaussianBlur>
<feMerge>
<feMergeNode in="blurred"></feMergeNode>
<feMergeNode in="SourceGraphic"></feMergeNode>
</feMerge>
</filter>

</defs>

<g transform="translate(0.000000,707.000000) scale(0.100000,-0.100000)"
fill="#17150E"  filter="url(#gold-glow)" stroke="none">
<path d="M4400 6090 c0 -5 5 -10 11 -10 5 0 7 5 4 10 -3 6 -8 10 -11 10 -2 0
-4 -4 -4 -10z"/>
<path d="M4483 6093 c9 -2 23 -2 30 0 6 3 -1 5 -18 5 -16 0 -22 -2 -12 -5z"/>
<path d="M4805 6035 c17 -7 32 -11 35 -9 7 8 -24 24 -45 23 -15 0 -13 -4 10
-14z"/>
<path d="M3573 6033 c9 -2 23 -2 30 0 6 3 -1 5 -18 5 -16 0 -22 -2 -12 -5z"/>
<path d="M4534 5990 c3 -8 9 -23 12 -32 4 -10 10 -18 15 -18 15 0 10 16 -12
41 -11 13 -18 17 -15 9z"/>
<path d="M4480 5946 c0 -54 32 -75 60 -41 11 13 9 20 -10 40 -30 32 -50 32
-50 1z"/>
<path d="M3122 5863 c-15 -6 -6 -23 12 -23 7 0 21 7 32 15 18 14 18 14 -6 14
-14 0 -31 -3 -38 -6z"/>
<path d="M2946 5823 c-42 -11 -166 -72 -166 -82 0 -6 -5 -11 -10 -11 -6 0 -20
-8 -31 -19 -11 -10 -28 -17 -37 -14 -16 4 -43 -12 -148 -84 -22 -15 -51 -34
-65 -42 -37 -22 -200 -154 -195 -158 11 -11 106 -14 106 -3 0 6 5 16 11 23 6
7 20 30 33 52 12 22 35 46 51 53 34 15 37 17 95 56 38 27 43 28 51 13 6 -9 18
-17 27 -17 19 1 73 29 55 30 -7 0 -9 9 -5 22 5 22 5 22 -21 5 -18 -11 -28 -13
-33 -6 -10 16 17 30 46 25 18 -3 35 4 58 25 17 16 32 33 32 38 0 11 79 51 101
51 8 1 28 12 44 25 17 14 28 24 25 24 -3 -1 -14 -4 -24 -6z"/>
<path d="M4477 5743 c-4 -3 -7 -11 -7 -17 0 -6 5 -5 12 2 6 6 9 14 7 17 -3 3
-9 2 -12 -2z"/>
<path d="M2863 5726 c4 -9 -3 -16 -19 -20 -13 -4 -24 -11 -24 -16 0 -13 16
-13 41 0 20 11 27 50 8 50 -6 0 -9 -6 -6 -14z"/>
<path d="M4838 5672 c-9 -9 -47 -23 -84 -30 -38 -7 -71 -17 -74 -21 -3 -5 -15
-11 -27 -15 -13 -4 -23 -11 -23 -15 0 -13 34 -9 52 7 10 8 41 17 70 19 48 3
51 2 28 -9 -50 -25 -52 -45 -6 -53 36 -7 86 16 86 40 0 7 7 15 15 19 16 6 20
33 9 60 -8 20 -24 19 -46 -2z"/>
<path d="M2800 5616 c0 -17 68 -32 83 -17 7 7 2 13 -17 21 -38 14 -66 13 -66
-4z"/>
<path d="M3865 5590 c-4 -6 7 -10 27 -10 25 0 29 3 18 10 -19 13 -37 13 -45 0z"/>
<path d="M2759 5528 c-19 -11 -41 -28 -47 -39 -11 -17 -7 -16 28 6 22 14 44
25 49 25 5 0 14 7 21 15 18 22 -6 18 -51 -7z"/>
<path d="M3163 5540 c-36 -14 -27 -22 15 -15 40 7 54 -2 77 -49 7 -14 20 -21
38 -21 34 0 39 17 10 30 -13 5 -23 15 -23 21 0 35 -66 54 -117 34z"/>
<path d="M3675 5530 c19 -21 50 -26 60 -10 4 6 -7 10 -24 10 -17 0 -31 5 -31
10 0 6 -5 10 -12 10 -6 0 -3 -9 7 -20z"/>
<path d="M3750 5539 c0 -5 5 -7 10 -4 6 3 10 8 10 11 0 2 -4 4 -10 4 -5 0 -10
-5 -10 -11z"/>
<path d="M2461 5473 c-7 -8 -11 -16 -8 -19 2 -2 10 2 17 11 17 20 9 27 -9 8z"/>
<path d="M4473 5445 c-7 -8 -13 -21 -13 -30 0 -8 -9 -24 -20 -35 -21 -21 -27
-50 -11 -50 5 0 13 9 16 20 3 11 12 26 18 33 23 25 39 59 30 67 -4 5 -14 2
-20 -5z"/>
<path d="M3180 5415 c-21 -22 -29 -35 -19 -35 22 0 56 27 62 50 7 29 -4 25
-43 -15z"/>
<path d="M4832 5413 c-15 -28 4 -66 29 -60 18 5 20 2 15 -19 -8 -32 8 -31 22
1 23 51 -41 126 -66 78z"/>
<path d="M2134 5262 c-153 -150 -248 -255 -284 -317 -13 -22 -33 -51 -45 -65
-44 -50 -136 -278 -160 -397 -27 -131 -64 -311 -100 -473 -58 -260 -68 -370
-62 -650 10 -393 9 -392 347 -1115 63 -135 159 -271 258 -367 175 -168 479
-326 852 -442 136 -42 260 -63 422 -72 116 -7 173 -3 558 35 172 17 288 15
550 -7 74 -7 191 -16 260 -21 l126 -8 84 -49 c47 -27 159 -104 249 -172 162
-121 287 -202 313 -202 25 0 75 -38 98 -74 37 -61 124 -90 180 -61 33 17 40
30 11 20 -25 -8 -72 11 -66 27 3 8 15 19 26 26 12 8 18 9 14 3 -3 -6 1 -11 10
-11 9 0 13 4 10 10 -3 5 -5 10 -3 10 2 0 17 4 34 9 28 8 31 7 31 -13 -1 -40
14 -83 36 -104 32 -30 102 -53 140 -45 54 10 127 63 87 63 -5 0 -10 -4 -10 -9
0 -24 -88 -19 -97 5 -3 8 -2 22 2 32 9 19 11 29 13 55 2 14 7 17 22 12 11 -3
28 -2 37 4 14 7 21 5 31 -12 13 -21 13 -21 9 6 -2 15 0 30 4 33 5 3 9 -23 9
-58 0 -40 6 -71 15 -84 20 -29 75 -54 119 -54 42 0 106 28 106 47 0 17 -5 16
-24 -3 -14 -13 -16 -13 -16 -1 0 10 -7 13 -20 10 -13 -3 -22 1 -26 12 -9 22 9
71 24 68 7 -2 12 2 12 7 0 6 -8 11 -17 12 -10 0 2 4 27 7 61 9 70 4 70 -35 0
-25 -4 -34 -17 -35 -14 0 -15 -2 -3 -6 8 -4 30 -18 49 -32 28 -21 44 -26 95
-25 36 1 62 6 64 12 2 7 9 12 17 12 7 0 13 12 13 27 0 24 -2 25 -13 10 -7 -10
-19 -16 -26 -15 -8 2 -13 -2 -12 -7 1 -6 -7 -12 -18 -12 -10 -1 -19 2 -19 8 0
5 -9 9 -21 9 -13 0 -18 4 -13 12 5 7 2 9 -8 5 -12 -4 -14 -1 -11 14 3 10 13
19 23 19 21 0 45 26 59 63 11 28 25 35 36 17 11 -18 27 -11 22 10 -3 13 0 20
9 20 8 0 14 -4 14 -8 0 -5 11 -22 25 -38 14 -16 25 -35 25 -41 0 -7 6 -13 14
-13 15 0 40 64 52 132 4 25 2 38 -5 38 -6 0 -11 -10 -11 -22 -1 -22 -1 -23
-15 -4 -20 27 -20 92 1 100 24 9 34 -2 34 -37 0 -49 13 -63 44 -49 25 11 53
80 42 105 -2 7 -5 4 -5 -5 -1 -25 -21 -22 -21 3 0 11 -4 29 -10 39 -14 27 12
124 34 128 10 2 15 10 12 17 -3 9 0 12 9 9 9 -4 17 7 24 33 15 52 14 116 0
107 -9 -5 -10 2 -6 22 12 54 19 289 10 344 l-8 55 -40 -82 c-22 -45 -46 -82
-52 -83 -7 0 -13 -4 -13 -10 0 -5 -11 -12 -24 -16 -21 -5 -24 -10 -19 -40 6
-37 -5 -46 -56 -48 -27 -1 -45 -36 -18 -36 8 0 -7 -23 -33 -51 -26 -29 -52
-49 -58 -45 -6 3 -12 0 -15 -6 -3 -10 -7 -10 -20 0 -13 11 -21 11 -46 -3 -32
-16 -41 -39 -18 -48 18 -8 -12 -27 -31 -20 -8 4 -19 -1 -24 -10 -5 -10 -16
-17 -24 -17 -9 0 -14 -6 -11 -12 2 -7 10 -12 16 -10 7 1 10 -2 7 -7 -10 -16
-71 4 -70 22 1 9 -2 17 -7 17 -5 0 -9 -4 -9 -10 0 -5 -7 -10 -15 -10 -25 0
-17 -17 11 -24 l26 -7 -27 -25 c-15 -14 -34 -23 -42 -20 -8 3 -37 6 -64 6 -37
0 -49 4 -49 15 0 8 3 15 8 15 4 0 16 17 27 38 11 20 24 40 30 44 13 9 -21 22
-40 14 -8 -3 -20 -17 -25 -31 -5 -14 -17 -28 -25 -31 -8 -4 -15 -12 -15 -19 0
-7 -6 -17 -12 -23 -16 -13 -70 -4 -61 11 3 5 -5 18 -18 28 -23 17 -23 18 -4
24 11 4 28 11 38 16 10 6 33 7 50 4 30 -6 31 -6 13 8 -11 8 -17 21 -13 30 7
18 -32 29 -57 15 -16 -9 -56 5 -56 20 0 4 14 16 30 25 34 21 40 47 10 47 -11
0 -23 6 -26 14 -4 11 -12 12 -35 4 -33 -11 -44 -6 -36 16 4 9 14 13 29 9 19
-5 21 -3 11 8 -7 7 -13 19 -13 27 0 20 -30 41 -57 42 -27 0 -27 -1 -6 40 12
24 13 35 5 38 -15 5 -16 38 -2 47 17 11 11 53 -8 59 -10 3 -23 21 -31 38 -9
23 -15 28 -18 18 -4 -8 -11 3 -19 29 -10 36 -10 50 2 83 16 47 17 58 5 58 -5
0 -13 -10 -17 -22 -4 -13 -16 -35 -26 -49 -25 -33 -50 -28 -95 17 -38 39 -51
73 -32 85 20 13 -9 31 -41 25 -30 -5 -63 11 -54 26 4 6 -4 19 -17 29 l-24 19
38 0 c35 0 37 1 26 21 -10 20 -9 21 11 16 19 -5 21 -2 17 20 -4 21 -2 24 17
19 19 -5 19 -3 -4 14 l-25 20 22 6 c12 3 24 13 27 21 5 13 9 13 32 -2 14 -9
28 -14 31 -11 3 3 -2 8 -11 12 -22 9 -20 34 3 34 11 0 23 5 26 10 3 6 21 10
39 10 17 0 37 5 44 12 16 16 28 2 13 -16 -9 -11 -8 -15 4 -19 8 -4 12 -13 9
-22 -3 -8 -10 -13 -14 -10 -18 11 -33 -31 -38 -103 -2 -42 -8 -84 -13 -94 -6
-11 -4 -18 7 -22 8 -3 12 -2 9 3 -3 5 -1 12 5 16 5 3 10 13 10 21 0 17 25 46
32 38 3 -2 8 15 12 38 4 24 16 62 28 85 l21 42 36 -49 c47 -64 118 -97 221
-105 69 -6 73 -5 56 9 -15 12 -16 18 -7 30 9 11 8 17 -4 29 -10 11 -12 18 -4
22 5 4 13 5 16 1 13 -12 33 26 37 69 2 26 8 50 13 54 6 3 15 15 21 27 8 16 18
20 40 16 16 -2 33 1 36 7 4 6 16 11 27 11 17 0 25 -16 20 -43 -1 -5 3 -6 9 -2
6 4 10 -11 10 -40 0 -38 -3 -46 -15 -41 -8 3 -15 1 -15 -4 0 -6 5 -10 10 -10
6 0 10 -5 10 -11 0 -6 -7 -9 -15 -6 -19 8 -30 -10 -16 -27 9 -10 8 -15 -4 -20
-9 -3 -15 0 -15 9 0 20 -20 29 -33 15 -9 -9 -6 -16 12 -31 l25 -20 -30 4 c-16
3 -28 9 -27 15 2 6 -3 9 -11 6 -7 -3 -16 2 -19 10 -8 20 -27 21 -27 2 0 -7 14
-19 31 -26 19 -8 26 -16 19 -20 -9 -5 -9 -9 -1 -14 6 -4 11 -3 11 3 0 6 6 8
13 5 19 -7 125 60 180 114 105 102 158 221 160 360 2 85 -5 154 -19 200 -5 18
-2 22 15 22 12 0 21 6 21 15 0 8 4 15 9 15 8 0 -1 -68 -14 -102 -4 -11 -3 -18
4 -18 6 0 11 -18 11 -43 0 -37 20 -114 46 -177 4 -8 8 -25 10 -38 1 -13 7 -29
12 -35 5 -7 17 -52 26 -102 10 -49 29 -143 43 -207 26 -115 26 -116 48 -102
30 20 65 94 65 140 0 21 9 63 20 92 16 42 18 60 11 94 -9 39 -6 50 29 125 22
45 42 95 45 110 l5 28 -14 -30 c-10 -20 -15 -24 -16 -12 -1 43 -40 5 -40 -40
0 -23 -5 -33 -15 -33 -8 0 -15 -6 -16 -12 0 -7 -5 1 -11 17 -6 17 -46 133 -89
260 l-80 229 52 101 c59 114 84 181 99 266 11 62 6 77 -31 91 -13 5 -16 2 -12
-13 3 -10 0 -19 -6 -19 -6 0 -11 -10 -11 -22 0 -13 -11 -45 -25 -73 l-25 -50
5 40 c2 22 7 56 10 75 l5 35 -20 -43 c-16 -36 -23 -42 -37 -34 -13 8 -16 21
-14 56 2 39 0 46 -16 46 -29 0 -43 -34 -52 -127 -6 -62 -13 -88 -25 -95 -9 -5
-16 -18 -16 -29 0 -11 -6 -22 -14 -25 -18 -7 -28 -42 -13 -47 15 -5 -1 -57
-18 -57 -8 0 -15 -4 -15 -10 0 -5 -11 -10 -25 -10 -26 0 -35 -15 -13 -22 7 -3
9 -12 5 -22 -4 -9 -11 -14 -17 -11 -6 4 -7 -1 -3 -11 5 -14 3 -16 -11 -11 -17
7 -137 -48 -144 -65 -2 -4 -10 -8 -18 -8 -9 0 -13 -4 -9 -9 3 -6 -11 -13 -31
-17 -24 -4 -38 -13 -42 -26 -9 -35 -76 -49 -122 -25 -18 10 -32 10 -52 3 -16
-6 -28 -13 -28 -17 0 -3 -13 -6 -30 -7 -16 0 -30 4 -30 9 0 5 7 9 15 9 8 0 23
9 33 20 15 16 29 19 85 17 37 -1 67 1 67 5 0 5 -16 8 -35 8 -36 0 -75 25 -75
47 0 7 7 13 15 13 8 0 15 4 15 9 0 5 6 16 13 23 11 11 0 13 -67 10 -45 -2 -90
-3 -101 -2 -11 1 -63 2 -115 3 -52 2 -113 6 -135 10 -30 6 -34 5 -17 -2 12 -6
22 -15 22 -20 0 -6 17 -13 38 -17 47 -10 52 -11 80 -12 13 -1 20 -7 17 -12 -4
-6 -10 -8 -15 -5 -5 3 -31 7 -58 9 -32 3 -74 17 -117 41 -48 25 -71 33 -79 26
-8 -7 -24 -7 -46 -1 -24 7 -39 6 -59 -5 -30 -17 -24 -19 14 -5 20 8 27 7 31
-5 4 -10 21 -15 53 -16 36 -1 41 -3 21 -8 -15 -4 -24 -14 -24 -24 2 -18 -12
-24 -18 -7 -5 15 -53 17 -51 3 2 -7 -3 -13 -11 -13 -8 0 -16 -5 -18 -11 -2 -7
-12 -7 -33 1 -27 11 -29 13 -12 24 24 18 21 26 -9 26 -14 0 -34 5 -45 11 -19
10 -19 12 -5 28 11 11 27 17 44 15 23 -4 21 -1 -13 16 -22 11 -47 20 -55 21
-8 0 -4 4 10 9 24 7 24 7 -10 17 -26 7 -35 15 -34 30 0 12 -5 19 -11 17 -6 -3
-20 4 -31 15 -16 15 -39 20 -107 22 -48 2 -87 1 -87 -3 0 -12 64 -28 97 -23
19 2 36 -1 40 -8 5 -7 22 -21 38 -31 38 -24 81 -66 67 -66 -6 0 -18 -3 -28 -7
-10 -4 -15 -2 -11 4 4 6 -19 14 -55 21 -34 6 -65 16 -68 22 -8 13 -105 18
-117 7 -9 -9 -43 22 -43 40 0 11 8 13 29 8 32 -7 49 8 32 29 -6 7 -8 16 -5 19
4 4 -5 11 -20 16 -29 12 -34 26 -10 35 30 11 51 6 79 -20 15 -14 29 -23 32
-20 7 7 -25 64 -39 69 -7 2 -10 8 -6 12 4 4 13 3 20 -2 7 -6 27 -14 43 -17 29
-6 31 -5 30 21 0 25 4 28 32 28 24 0 29 3 21 12 -12 15 -48 17 -48 3 0 -15
-19 -12 -36 4 -17 17 -11 22 38 31 29 6 38 3 46 -11 16 -28 24 -11 9 19 -6 15
-20 27 -29 27 -10 0 -18 5 -18 10 0 15 -30 12 -30 -2 0 -7 -5 -5 -11 5 -5 9
-20 17 -32 17 -14 0 -41 18 -67 45 -30 31 -47 41 -55 35 -7 -5 -15 -7 -18 -3
-4 3 -7 -2 -7 -11 0 -11 5 -16 13 -13 8 3 20 1 28 -5 12 -8 12 -9 -1 -5 -8 2
-21 -2 -28 -10 -19 -18 -29 -16 -42 7 -6 12 -21 20 -35 20 -14 0 -25 4 -25 9
0 5 -8 12 -17 15 -19 8 -40 -8 -24 -18 22 -14 10 -26 -26 -26 -42 0 -106 15
-140 32 -17 8 -29 8 -48 0 -21 -10 -30 -9 -50 4 -13 8 -38 15 -57 14 -75 -2
-103 1 -125 15 -29 19 -20 49 13 42 13 -2 24 0 24 5 0 8 18 5 58 -9 27 -11 10
15 -18 27 -33 14 -42 35 -11 25 21 -6 38 10 21 20 -20 12 -10 26 11 14 19 -10
20 -8 14 10 -4 14 -1 23 9 27 19 7 77 -55 72 -78 -3 -12 10 -22 46 -38 28 -12
47 -24 44 -27 -9 -10 15 -33 33 -32 10 0 11 2 4 6 -16 6 -17 23 -3 23 6 0 15
-11 22 -25 6 -13 15 -22 19 -19 5 3 18 0 30 -6 31 -17 47 2 29 35 -11 20 -19
25 -36 21 -13 -4 -26 -2 -29 4 -4 6 1 7 12 3 16 -5 16 -4 3 10 -22 22 -88 57
-109 57 -20 0 -61 32 -61 47 0 17 51 2 63 -18 7 -11 18 -19 25 -19 9 0 8 6 -4
25 l-16 25 31 -6 c35 -7 41 5 11 24 -11 7 -17 18 -14 26 4 10 -3 17 -19 21
-21 6 -25 13 -25 42 0 23 3 31 8 23 5 -8 15 -15 23 -16 8 -1 23 -10 35 -19 16
-14 18 -22 9 -36 -12 -19 5 -49 26 -49 8 0 8 3 0 11 -6 6 -9 18 -6 25 8 21 49
7 115 -38 31 -21 61 -38 67 -38 14 0 71 -34 71 -42 0 -15 29 -8 38 9 7 12 18
15 46 10 20 -3 36 -4 36 -1 0 9 -64 64 -74 63 -6 0 -6 -3 2 -6 6 -2 12 -11 12
-19 0 -13 -4 -13 -27 -1 -16 8 -50 25 -78 38 -27 13 -51 27 -53 32 -2 4 -17 7
-33 7 -16 0 -29 5 -29 11 0 5 4 8 9 4 17 -10 22 13 6 28 -8 9 -15 20 -15 26 0
6 -10 11 -22 11 -13 0 -36 11 -52 25 -19 16 -24 25 -14 25 8 0 25 -9 38 -20
44 -38 33 -10 -13 34 -29 27 -42 46 -35 49 7 2 25 -7 40 -21 15 -14 42 -27 60
-28 l33 -4 -43 40 c-34 31 -40 41 -28 46 9 3 23 3 32 0 8 -3 13 -2 10 3 -9 14
18 60 37 65 15 4 17 8 7 25 -6 12 -7 21 -2 21 5 0 15 18 22 40 9 27 19 40 32
40 10 0 18 6 18 14 0 14 27 31 43 27 5 -1 11 8 14 19 3 13 14 20 28 20 27 0
90 73 82 94 -3 8 1 17 9 20 8 3 14 13 14 22 0 15 28 55 65 95 8 9 15 19 15 23
0 5 6 22 14 39 16 34 36 104 36 125 0 6 -4 12 -10 12 -5 0 -10 -6 -10 -14 0
-17 -59 -76 -76 -76 -6 0 -20 -12 -29 -27 -10 -16 -24 -32 -32 -36 -11 -7 -11
-12 -2 -23 9 -11 8 -15 -5 -20 -21 -8 -21 -30 1 -42 11 -7 14 -15 8 -28 -7
-18 -8 -18 -12 -1 -3 9 -11 17 -19 17 -11 0 -13 -6 -9 -20 4 -14 2 -20 -7 -18
-7 2 -12 -4 -10 -13 1 -9 -12 -23 -32 -34 -29 -16 -33 -22 -23 -33 10 -12 7
-13 -21 -8 -33 8 -41 -1 -19 -23 10 -10 7 -11 -16 -6 -22 6 -26 4 -22 -8 4 -8
-1 -17 -9 -20 -9 -4 -16 -13 -16 -22 0 -31 -15 -14 -17 20 -2 20 2 35 8 35 5
0 7 5 4 10 -8 13 -35 -13 -35 -34 0 -9 -7 -16 -15 -16 -18 0 -20 -17 -2 -23 6
-2 -12 -7 -42 -12 -39 -5 -56 -4 -61 5 -5 8 -15 10 -26 5 -13 -5 -15 -9 -6
-12 18 -7 15 -20 -7 -26 -11 -3 -22 -17 -26 -36 -8 -36 -17 -39 -44 -10 -14
15 -21 17 -27 8 -4 -7 -3 -14 4 -17 23 -7 12 -19 -13 -14 -15 2 -25 0 -25 -7
0 -6 -13 -11 -30 -11 -16 0 -30 -4 -30 -10 0 -5 5 -10 12 -10 6 0 9 -3 5 -6
-3 -3 -15 0 -26 8 -12 8 -18 17 -15 21 3 3 -7 14 -23 24 -41 26 -55 42 -48 52
3 6 -10 13 -30 17 -19 3 -51 19 -71 35 -40 32 -90 38 -108 14 -10 -13 -17 -12
-61 10 -27 13 -56 25 -64 25 -8 0 -11 3 -8 7 7 6 -21 32 -35 33 -16 0 -7 -19
10 -23 13 -4 11 -5 -5 -6 -13 0 -23 -6 -23 -12 0 -5 4 -8 9 -5 5 3 26 -1 47
-10 49 -20 30 -34 -49 -34 -51 0 -59 3 -68 23 -8 19 -17 23 -37 19 -15 -3 -32
-9 -39 -14 -7 -5 -17 -7 -23 -3 -12 8 -13 35 -1 35 5 0 11 9 14 19 5 21 65 40
76 24 3 -6 18 -12 34 -15 21 -4 27 -1 27 13 0 18 -33 35 -48 25 -5 -3 -18 1
-28 9 -15 11 -16 14 -4 15 8 0 20 12 27 26 10 22 10 30 -2 48 -23 31 -18 40
11 21 28 -18 43 -14 27 7 -20 26 -21 55 -2 66 25 16 26 15 32 -7 3 -14 1 -18
-9 -14 -16 6 -19 -22 -4 -32 12 -7 9 -37 -3 -46 -5 -3 -2 -9 7 -12 9 -4 16 -2
16 3 0 6 5 10 10 10 6 0 10 -7 10 -15 0 -16 48 -40 59 -30 5 5 -11 20 -31 27
-3 2 -9 20 -13 41 -7 34 -5 37 15 37 16 0 20 4 16 15 -6 16 13 55 27 55 4 0
22 10 39 23 65 46 89 81 48 70 -11 -3 -20 0 -20 6 0 18 -28 13 -43 -9 -12 -17
-16 -18 -32 -6 -17 12 -18 16 -5 31 14 16 13 17 -7 11 -14 -4 -24 -2 -30 7 -9
15 -43 31 -43 20 0 -4 7 -15 17 -25 9 -11 11 -18 5 -18 -7 0 -12 6 -12 13 0 9
-2 9 -9 -1 -4 -8 -11 -13 -15 -13 -3 1 -6 -1 -6 -4 0 -3 0 -12 0 -20 0 -8 7
-15 15 -15 17 0 20 -26 4 -35 -5 -4 -18 0 -28 9 -23 21 -52 21 -45 1 4 -9 0
-15 -10 -15 -9 0 -16 5 -16 10 0 6 -9 10 -20 10 -23 0 -26 -10 -8 -28 6 -6 8
-15 4 -19 -12 -12 -38 29 -32 50 4 18 3 18 -14 2 -17 -16 -19 -15 -30 6 -9 16
-14 18 -20 9 -13 -21 0 -40 29 -41 23 -2 24 -2 4 -6 -30 -6 -29 -23 1 -23 27
0 39 -27 24 -54 -10 -19 -37 -21 -71 -5 -26 12 -67 75 -67 103 0 10 -5 14 -10
11 -5 -3 -10 -1 -10 5 0 6 -5 8 -10 5 -8 -5 -7 -11 1 -21 17 -20 5 -28 -14 -9
-9 8 -21 15 -27 15 -7 0 -9 8 -5 19 3 10 -1 24 -10 31 -16 14 -19 7 -15 -37 2
-27 -15 -30 -29 -5 -9 15 -10 15 -11 -5 0 -26 -15 -30 -28 -7 -8 14 -10 14
-21 0 -13 -15 -12 -30 4 -68 9 -23 -17 -25 -35 -3 -9 11 -17 12 -32 4 -12 -6
-24 -7 -31 -1 -17 13 -77 32 -77 25 0 -4 8 -15 18 -26 17 -20 16 -20 -15 -14
-19 4 -33 2 -35 -5 -3 -7 -10 -5 -20 6 -20 19 -43 22 -31 4 4 -7 6 -23 5 -34
-4 -26 19 -32 106 -28 45 2 62 -1 64 -12 2 -9 8 -11 18 -4 12 7 12 12 2 22
-15 15 -16 44 -2 53 6 3 14 -5 20 -19 5 -14 17 -26 27 -26 10 0 27 -7 37 -15
27 -20 53 -20 36 0 -19 23 -48 84 -42 90 13 13 32 3 38 -20 3 -14 10 -25 16
-25 5 0 6 -5 3 -10 -10 -16 42 -79 70 -86 34 -8 32 -24 -3 -24 -16 0 -34 8
-42 20 -18 25 -30 26 -30 1 0 -11 9 -23 20 -26 20 -6 28 -25 11 -25 -5 0 -12
-7 -15 -16 -4 -9 -2 -13 5 -8 8 4 9 -1 4 -15 -5 -16 -1 -26 11 -36 11 -7 22
-11 27 -8 9 5 37 -15 37 -28 0 -5 -7 -6 -15 -3 -18 7 -20 -7 -3 -24 6 -6 8
-15 4 -19 -4 -5 -22 9 -40 30 -31 37 -42 42 -126 54 -25 3 -48 11 -52 17 -5 8
-8 7 -8 -1 0 -15 -68 20 -87 45 -11 13 -13 11 -13 -20 0 -31 -3 -35 -24 -33
-14 2 -30 6 -36 10 -8 5 -11 1 -8 -11 1 -9 7 -17 11 -15 4 1 15 -5 23 -13 8
-9 25 -22 37 -31 20 -14 20 -15 3 -28 -18 -13 -17 -15 12 -25 35 -12 43 -32
13 -32 -17 0 -47 22 -101 75 -14 14 -29 25 -33 25 -4 0 -32 25 -62 55 -29 30
-56 55 -60 55 -3 0 -5 -10 -3 -22 2 -15 24 -37 62 -63 59 -40 94 -80 82 -93
-4 -3 -23 11 -43 32 -26 28 -38 35 -42 25 -11 -26 -46 -20 -65 12 -13 21 -24
29 -37 26 -29 -8 -109 13 -109 28 0 9 -6 12 -17 8 -13 -5 -15 -2 -11 14 4 16
2 19 -13 16 -22 -6 -24 -14 -7 -31 9 -9 7 -12 -9 -12 -26 0 -32 16 -22 54 5
16 6 32 4 35 -3 2 -5 -1 -5 -7 0 -7 -4 -12 -10 -12 -5 0 -10 8 -10 19 0 28
-22 41 -96 57 -76 15 -83 19 -65 37 11 9 14 9 18 -1 3 -6 9 -9 15 -6 5 3 2 14
-8 25 -9 11 -14 22 -11 26 4 3 7 1 7 -5 0 -7 11 -12 25 -12 14 0 25 -4 25 -8
0 -14 62 -54 70 -46 14 14 -25 53 -67 68 -26 9 -38 19 -38 32 0 10 -4 22 -10
26 -5 5 5 5 22 2 19 -4 39 -2 46 4 9 8 20 7 39 -2 24 -13 27 -12 32 8 5 18 8
19 16 6 8 -11 9 -8 4 12 -5 22 -2 29 12 35 27 9 61 47 56 62 -2 6 2 10 8 9 7
-2 15 3 17 10 6 15 -53 17 -62 1 -4 -6 -13 -8 -20 -5 -7 2 -16 -2 -19 -10 -3
-8 -19 -14 -41 -14 -24 0 -35 -4 -35 -15 0 -8 -7 -15 -15 -15 -7 0 -18 -7 -23
-16 -13 -24 -63 -8 -61 20 3 36 -1 56 -11 56 -5 0 -10 -13 -10 -30 0 -29 -13
-40 -25 -20 -15 25 -23 5 -20 -47 2 -32 2 -48 -1 -35 -6 23 -28 30 -39 12 -13
-21 -25 -9 -25 25 0 29 4 35 22 35 20 0 20 1 5 18 -22 24 -21 32 3 32 11 0 20
5 20 10 0 6 -11 10 -24 10 -32 0 -36 8 -28 51 11 51 4 79 -24 89 -27 11 -33
35 -6 28 11 -3 24 4 35 19 10 12 14 23 8 23 -5 0 -16 3 -25 6 -11 4 -16 1 -16
-10 0 -9 -8 -16 -18 -16 -19 0 -42 -18 -42 -32 0 -5 12 -13 26 -18 19 -8 25
-16 21 -30 -3 -11 -2 -20 2 -20 15 0 30 -41 25 -70 -7 -33 -34 -42 -34 -11 0
24 -17 37 -58 46 -36 7 -37 9 -47 69 -6 35 -7 37 -20 20 -13 -18 -14 -18 -30
1 -15 20 -16 19 -13 -5 2 -14 9 -24 16 -22 14 2 16 -24 3 -32 -15 -10 -40 4
-47 26 -4 15 -9 17 -17 9 -18 -18 -23 -13 -35 28 -16 52 -34 66 -55 43 -8 -9
-16 -21 -16 -27 0 -5 -4 -11 -10 -13 -6 -2 -11 3 -11 10 0 17 67 98 81 98 5 0
15 -12 21 -27 l12 -28 4 25 c2 14 8 29 13 35 14 15 10 33 -8 38 -17 4 -17 4 0
12 9 4 25 4 35 0 11 -5 13 -9 5 -12 -27 -10 -11 -25 22 -21 29 3 35 1 35 -14
0 -10 5 -18 11 -18 8 0 8 -4 -1 -15 -9 -11 -16 -12 -31 -2 -13 8 -21 9 -30 0
-8 -8 -2 -15 20 -26 17 -9 31 -11 31 -6 0 5 7 9 15 9 12 0 14 12 10 68 -2 37
-5 71 -5 76 0 5 -13 6 -29 3 -23 -5 -30 -2 -40 20 -7 16 -17 23 -26 19 -8 -3
-15 -1 -15 4 0 6 5 10 11 10 7 0 27 17 45 38 18 20 33 31 34 25 0 -18 35 -16
50 2 14 17 40 20 40 4 0 -5 5 -7 11 -4 6 4 8 13 5 21 -3 8 3 23 14 34 19 19
19 19 -10 13 -34 -6 -42 12 -9 22 31 10 17 16 -19 9 -22 -5 -32 -12 -32 -25 0
-22 -44 -54 -60 -44 -6 4 -20 -1 -30 -10 -10 -9 -24 -14 -29 -10 -6 3 -11 1
-11 -5 0 -6 -5 -8 -11 -5 -6 4 -13 -2 -16 -14 -3 -11 -9 -18 -14 -15 -16 10
-51 -7 -45 -22 3 -8 1 -14 -4 -14 -6 0 -10 5 -10 10 0 14 -28 12 -33 -2 -2 -7
-8 -10 -12 -6 -8 7 -5 13 20 57 14 26 9 54 -6 30 -4 -7 -11 -10 -15 -7 -10 10
4 54 22 72 8 9 12 16 7 16 -4 0 -71 -62 -149 -138z m91 -1 c3 -6 -3 -14 -12
-20 -13 -7 -14 -10 -4 -11 20 0 3 -15 -17 -15 -10 0 -17 -9 -18 -20 -2 -46 -4
-58 -11 -52 -3 4 -12 -2 -20 -13 -22 -32 -43 -25 -43 14 0 27 9 41 53 80 54
48 62 52 72 37z m145 -67 c0 -3 -9 -19 -21 -35 -23 -32 -77 -43 -65 -13 3 9 6
20 6 25 0 5 9 9 19 9 11 0 23 5 26 10 7 11 35 14 35 4z m-128 -59 c-11 -21
-25 -4 -16 20 4 10 10 13 16 7 7 -7 7 -16 0 -27z m-171 -36 c-5 -13 -10 -19
-10 -12 -1 15 10 45 15 40 3 -2 0 -15 -5 -28z m138 -14 c3 -17 -22 -45 -41
-45 -13 0 -9 45 4 58 16 16 32 10 37 -13z m131 16 c0 -12 -21 -19 -37 -13 -22
8 -14 22 12 22 14 0 25 -4 25 -9z m-230 -21 c0 -5 -5 -10 -11 -10 -5 0 -7 5
-4 10 3 6 8 10 11 10 2 0 4 -4 4 -10z m-27 -53 c3 12 5 9 6 -9 1 -32 -23 -39
-34 -10 -6 16 -7 16 -21 -2 -10 -15 -14 -16 -14 -5 0 28 22 40 41 23 16 -14
18 -14 22 3z m117 -3 c0 -8 -5 -12 -10 -9 -6 4 -8 11 -5 16 9 14 15 11 15 -7z
m-60 -50 c0 -9 -5 -14 -12 -12 -18 6 -21 28 -4 28 9 0 16 -7 16 -16z m-77 -54
c-6 -24 -19 -34 -34 -25 -7 5 -4 14 7 26 22 25 33 24 27 -1z m213 -46 c-4 -9
-9 -15 -11 -12 -3 3 -3 13 1 22 4 9 9 15 11 12 3 -3 3 -13 -1 -22z m94 16 c0
-5 -5 -10 -11 -10 -5 0 -7 5 -4 10 3 6 8 10 11 10 2 0 4 -4 4 -10z m-133 -16
c-3 -3 -12 -4 -19 -1 -8 3 -5 6 6 6 11 1 17 -2 13 -5z m-52 -71 c25 -29 32
-53 16 -53 -5 0 -18 -3 -28 -6 -13 -4 -14 -3 -5 3 16 12 6 40 -19 54 -11 5
-19 14 -19 19 0 20 32 9 55 -17z m-93 -13 c10 0 64 -52 60 -57 -7 -10 1 -23
13 -23 8 0 15 -7 15 -15 0 -21 -22 -19 -41 3 -9 11 -25 25 -36 33 -11 8 -22
30 -26 49 -3 19 -3 29 0 23 2 -7 9 -13 15 -13z m413 -42 c7 -50 6 -52 -33 -42
-17 5 -21 11 -17 25 4 11 2 19 -4 19 -6 0 -11 10 -10 23 0 21 1 21 9 2 8 -18
10 -18 14 3 3 18 19 33 26 25 5 -4 11 -29 15 -55z m125 22 c8 -5 11 -12 8 -16
-10 -9 -38 3 -38 16 0 12 10 13 30 0z m-372 -55 c-3 -31 -9 -31 -27 -4 -10 18
-10 23 0 30 19 11 29 1 27 -26z m176 0 c16 -19 34 -35 40 -35 18 -1 62 -45 68
-68 5 -19 3 -21 -20 -15 -26 6 -27 5 -9 -14 20 -23 21 -42 6 -77 -15 -33 -30
-24 -22 14 4 22 -1 37 -21 60 -14 18 -26 38 -26 47 0 22 -25 10 -28 -15 -2
-12 -8 -22 -13 -22 -12 0 -11 12 1 46 6 16 7 30 2 33 -12 8 -25 81 -15 81 5 0
21 -16 37 -35z m132 9 c-4 -9 -2 -22 3 -28 6 -7 4 -18 -6 -31 -11 -14 -14 -15
-10 -4 3 9 -1 28 -8 42 -14 27 -11 37 13 37 9 0 12 -6 8 -16z m72 -56 c5 -26
-26 -50 -49 -38 -23 13 -26 35 -3 26 11 -4 18 1 21 14 6 23 26 22 31 -2z
m1490 -20 c-6 -18 -28 -21 -28 -4 0 9 7 16 16 16 9 0 14 -5 12 -12z m-2008
-40 c0 -17 -45 -3 -48 15 -3 15 0 16 22 6 14 -7 26 -16 26 -21z m580 16 c0 -9
-5 -14 -12 -12 -18 6 -21 28 -4 28 9 0 16 -7 16 -16z m1057 0 c-3 -3 -12 -4
-19 -1 -8 3 -5 6 6 6 11 1 17 -2 13 -5z m-62 -24 c3 -5 1 -10 -4 -10 -6 0 -11
5 -11 10 0 6 2 10 4 10 3 0 8 -4 11 -10z m104 -12 c16 -25 8 -34 -12 -13 -9 8
-18 15 -21 15 -13 0 -4 -17 28 -53 30 -34 37 -37 56 -27 12 6 24 9 28 6 3 -3
0 -6 -7 -6 -7 0 -3 -9 10 -20 l24 -21 -35 7 c-19 3 -39 10 -45 14 -5 4 -31 11
-58 14 -26 4 -45 11 -42 16 3 5 2 18 -3 27 -5 10 -6 27 -2 38 10 27 63 29 79
3z m-1114 2 c3 -5 17 -10 31 -10 13 0 24 -5 24 -11 0 -15 -68 -2 -87 17 -13
12 -12 14 6 14 11 0 23 -4 26 -10z m2542 -12 c-3 -8 -6 -5 -6 6 -1 11 2 17 5
13 3 -3 4 -12 1 -19z m-2599 -48 c6 -17 19 -33 29 -37 32 -12 83 -55 77 -65
-4 -6 -9 -6 -13 -2 -3 5 -23 18 -43 28 -21 11 -38 23 -38 28 0 5 -17 26 -39
48 -21 22 -33 41 -27 43 19 7 44 -12 54 -43z m1322 40 c0 -5 -2 -10 -4 -10 -3
0 -8 5 -11 10 -3 6 -1 10 4 10 6 0 11 -4 11 -10z m-1492 -33 c2 -10 -3 -17
-11 -17 -9 0 -22 -3 -31 -6 -12 -5 -16 0 -16 20 0 20 -4 24 -17 20 -14 -4 -15
-3 -5 4 20 14 76 -1 80 -21z m1386 7 c3 -8 2 -12 -4 -9 -6 3 -10 10 -10 16 0
14 7 11 14 -7z m-1072 -19 c20 -14 44 -25 52 -25 8 0 18 -4 21 -10 3 -6 -5
-10 -19 -10 -13 0 -26 3 -28 8 -4 10 -75 42 -93 42 -8 0 -15 5 -15 10 0 18 45
10 82 -15z m-198 -14 c14 -27 12 -41 -5 -41 -13 0 -31 40 -25 56 8 20 14 18
30 -15z m-124 -11 c0 -5 -2 -10 -4 -10 -3 0 -8 5 -11 10 -3 6 -1 10 4 10 6 0
11 -4 11 -10z m-255 -49 c-9 -16 -25 -3 -18 15 4 10 9 12 15 6 6 -6 7 -15 3
-21z m1625 -12 c0 -14 -5 -11 -31 17 l-24 27 28 -18 c15 -9 27 -21 27 -26z
m-1540 16 c8 -1 24 -6 35 -10 11 -4 26 -9 34 -11 10 -3 11 -7 1 -19 -6 -7 -19
-11 -28 -8 -16 6 -16 5 0 -13 20 -23 41 -101 33 -121 -4 -13 -10 -11 -30 11
-13 14 -29 26 -35 26 -12 0 -56 71 -52 84 2 5 -5 17 -14 27 -23 25 -11 53 18
43 13 -4 30 -8 38 -9z m191 -35 c5 0 9 6 9 13 1 6 7 -3 16 -22 18 -42 -1 -63
-25 -28 -30 44 -50 48 -44 10 l5 -28 -26 29 c-25 28 -33 56 -20 68 3 4 22 -5
41 -18 20 -13 40 -24 44 -24z m69 14 c0 -8 -4 -14 -10 -14 -5 0 -10 4 -10 9 0
5 -3 18 -7 28 -6 16 -5 16 10 4 9 -7 17 -20 17 -27z m100 17 c0 -5 9 -12 19
-16 22 -7 35 -44 21 -61 -14 -16 -79 -9 -99 10 -14 15 -13 16 6 16 12 0 25 5
28 11 4 6 13 8 21 5 8 -3 14 -1 14 4 0 6 -6 10 -14 10 -8 0 -16 7 -20 15 -3 9
0 15 9 15 8 0 15 -4 15 -9z m1114 -23 c5 -9 7 -20 3 -25 -11 -10 -41 11 -45
31 -5 23 26 18 42 -6z m-994 -28 c0 -5 -4 -10 -10 -10 -5 0 -10 5 -10 10 0 6
5 10 10 10 6 0 10 -4 10 -10z m-25 -30 c19 -37 20 -64 1 -57 -8 3 -17 1 -19
-6 -3 -9 -7 -9 -17 0 -9 9 -7 14 10 23 20 11 20 13 6 35 -8 12 -12 25 -9 29
10 9 11 8 28 -24z m1105 15 c0 -9 -6 -12 -15 -9 -8 4 -15 10 -15 15 0 5 7 9
15 9 8 0 15 -7 15 -15z m-1450 -39 c0 -11 -19 -15 -25 -6 -3 5 1 10 9 10 9 0
16 -2 16 -4z m123 -8 c3 -10 9 -10 26 0 31 18 45 15 68 -16 27 -36 15 -66 -15
-39 -21 19 -43 24 -24 5 18 -18 14 -38 -8 -38 -11 0 -20 5 -20 10 0 6 -7 10
-15 10 -18 0 -20 -39 -2 -42 6 0 17 -2 22 -3 6 -2 17 -3 25 -4 29 -3 43 -19
45 -55 2 -20 1 -36 -3 -36 -3 0 -21 14 -39 32 -18 17 -36 28 -40 25 -4 -4 -1
-13 5 -19 19 -19 14 -29 -7 -16 -11 7 -23 21 -26 33 -4 13 -8 16 -12 7 -7 -18
67 -112 90 -112 11 0 22 -11 28 -30 6 -16 15 -30 20 -30 5 0 9 -10 10 -22 l0
-23 9 23 c12 28 50 30 50 3 0 -11 5 -21 11 -23 6 -2 10 -11 8 -20 -4 -14 -8
-14 -51 0 -27 8 -48 21 -48 28 0 8 -11 14 -27 14 -30 1 -72 20 -72 33 0 17
-26 77 -33 77 -4 0 -8 -10 -8 -21 0 -20 -1 -20 -21 5 -20 25 -20 28 -4 40 21
15 34 106 15 106 -7 0 -10 7 -6 15 3 8 1 15 -4 15 -13 0 -64 49 -58 56 11 10
78 -41 78 -59 0 -17 1 -17 16 -2 14 14 15 20 3 43 -7 15 -15 30 -17 35 -2 4 3
7 11 7 9 0 17 -6 20 -12z m454 -13 c-4 -8 -12 -15 -19 -14 -10 0 -10 2 0 6 6
2 12 12 12 21 0 8 3 13 6 9 4 -3 4 -13 1 -22z m833 10 c11 -13 10 -14 -4 -9
-9 3 -16 10 -16 15 0 13 6 11 20 -6z m-173 -40 c-5 -14 -47 -19 -60 -6 -6 6
-20 11 -30 11 -15 0 -17 3 -8 13 8 11 20 11 56 3 25 -6 44 -15 42 -21z m53 15
c0 -5 -4 -10 -9 -10 -6 0 -13 5 -16 10 -3 6 1 10 9 10 9 0 16 -4 16 -10z
m-735 -30 c27 -30 14 -32 -30 -5 -38 23 -38 24 -14 25 14 0 34 -9 44 -20z
m175 4 c0 -14 -3 -14 -15 -4 -8 7 -15 14 -15 16 0 2 7 4 15 4 8 0 15 -7 15
-16z m-290 -14 c-8 -5 -19 -10 -25 -10 -5 0 -3 5 5 10 8 5 20 10 25 10 6 0 3
-5 -5 -10z m1533 -22 c18 -12 34 -25 37 -28 3 -4 23 -14 45 -24 l40 -17 -39 5
c-22 3 -43 11 -47 18 -6 10 -11 10 -19 2 -9 -9 -20 -9 -42 0 -24 8 -32 8 -35
-1 -5 -15 -43 -18 -43 -3 0 5 -15 13 -32 18 -18 6 -41 13 -50 17 -10 4 -18 3
-18 -3 0 -5 11 -13 25 -16 14 -4 25 -11 25 -16 0 -14 -52 -1 -66 16 -6 7 -20
11 -31 8 -12 -3 -32 2 -46 11 -15 9 -34 14 -44 11 -10 -3 -25 -1 -33 4 -12 8
-8 10 15 12 73 5 155 2 155 -5 0 -5 4 -5 10 -2 5 3 30 -3 54 -15 51 -23 80
-27 56 -7 -8 7 -21 20 -28 29 -12 15 -10 16 33 12 26 -2 61 -14 78 -26z
m-1473 8 c0 -15 64 -68 68 -56 2 6 15 2 29 -10 14 -11 32 -20 39 -20 8 0 14
-11 14 -25 0 -14 3 -25 8 -25 4 0 18 -3 32 -7 l25 -6 -29 27 c-35 33 -28 45
11 19 15 -11 33 -18 40 -16 6 2 17 -6 24 -19 16 -31 14 -29 33 -22 9 3 14 9
11 14 -7 12 49 -2 66 -16 9 -8 19 -11 22 -7 8 7 47 -26 47 -40 0 -6 7 -19 17
-29 9 -11 11 -18 5 -18 -7 0 -12 5 -12 10 0 6 -4 10 -10 10 -17 0 -11 -30 10
-52 11 -12 20 -28 20 -35 0 -7 7 -13 16 -13 12 0 15 6 9 23 -3 12 -8 33 -10
47 -1 14 -6 34 -10 44 -7 16 -5 18 9 13 10 -4 22 -7 27 -7 4 0 6 -6 3 -14 -3
-9 12 -26 42 -45 36 -25 53 -31 75 -26 18 4 29 2 29 -4 0 -6 25 -27 56 -47 37
-24 52 -39 44 -44 -8 -5 -4 -13 14 -28 14 -11 26 -23 26 -26 0 -14 -27 -4 -52
19 -25 23 -31 24 -74 15 -33 -8 -50 -8 -58 0 -7 7 -3 10 13 10 22 0 23 3 18
37 -8 47 -12 50 -75 61 -43 8 -50 7 -41 -4 6 -7 18 -10 27 -7 15 6 15 4 4 -10
-8 -9 -11 -25 -7 -37 5 -16 2 -23 -14 -27 -21 -5 -30 -23 -11 -23 15 0 12 -20
-7 -38 -12 -12 -18 -13 -21 -4 -8 25 -21 11 -15 -18 4 -23 2 -30 -11 -30 -9 0
-16 7 -16 15 0 19 -5 19 -35 -1 -14 -9 -22 -20 -19 -26 3 -5 12 -4 20 3 8 6
14 8 14 4 0 -8 -42 -44 -52 -45 -5 0 -8 9 -8 19 0 10 -7 21 -15 25 -8 3 -15
15 -15 27 0 16 -5 20 -18 17 -21 -6 -54 23 -34 30 17 5 15 22 -3 22 -8 0 -15
7 -15 15 0 8 7 15 15 15 8 0 15 -4 15 -10 0 -5 7 -10 16 -10 10 0 14 6 10 15
-7 19 3 19 25 -1 13 -12 22 -13 36 -5 17 10 17 11 -4 17 -24 7 -30 20 -12 26
7 2 3 16 -10 38 -11 19 -25 45 -30 56 -11 26 -37 38 -45 21 -5 -9 -7 -9 -12 1
-3 6 -12 12 -20 12 -14 0 -19 17 -16 53 1 9 -3 17 -8 17 -6 0 -10 -4 -10 -9 0
-4 -11 -6 -25 -3 -29 5 -33 -11 -9 -30 40 -31 84 -81 84 -94 0 -11 -5 -10 -22
6 -12 11 -30 20 -40 20 -10 0 -18 7 -18 18 0 9 -4 24 -10 32 -7 12 -12 11 -29
-8 -17 -20 -22 -22 -40 -10 -15 9 -23 10 -32 1 -16 -16 -5 -29 29 -36 18 -4
31 -14 35 -26 6 -26 -18 -28 -52 -5 -19 14 -25 14 -32 3 -9 -16 5 -36 33 -45
26 -8 94 -78 101 -103 3 -13 -1 -21 -14 -24 -11 -3 -19 -1 -19 5 0 5 -7 16
-15 24 -13 14 -16 14 -21 0 -4 -9 -14 -15 -23 -14 -9 2 -15 -3 -13 -10 1 -8
-5 -12 -15 -10 -12 2 -17 11 -15 27 2 13 -1 21 -6 17 -12 -7 -72 43 -72 60 0
6 -13 17 -30 24 -16 7 -30 16 -30 21 0 4 -18 14 -40 20 -22 7 -40 18 -40 25 0
17 50 32 80 24 19 -5 24 -12 22 -31 -2 -19 4 -29 23 -37 14 -7 36 -17 49 -23
13 -6 29 -10 36 -7 12 4 -6 14 -62 37 -22 8 -28 17 -28 41 0 16 5 30 10 30 6
0 10 -7 10 -15 0 -8 9 -15 20 -15 20 0 20 1 3 25 -11 14 -28 24 -43 25 -40 0
-73 28 -66 56 3 12 2 26 -4 29 -6 3 -7 -1 -4 -9 8 -20 0 -20 -31 0 -17 11 -25
12 -25 5 0 -8 -10 -6 -30 6 -30 17 -39 33 -20 33 6 0 10 7 10 15 0 8 -5 15
-11 15 -17 0 -6 52 14 64 14 9 21 7 30 -5 7 -9 25 -19 42 -23 16 -4 33 -13 37
-19 5 -8 8 -6 8 6 0 9 4 17 10 17 5 0 13 -8 19 -17 7 -13 13 -15 21 -7 14 14
57 -4 64 -26 3 -12 4 -12 5 1 0 9 -17 34 -38 56 -31 31 -35 39 -20 39 10 0 19
-5 19 -10z m810 -6 c21 -17 23 -21 10 -30 -21 -14 -47 -12 -54 3 -5 10 -7 10
-12 0 -8 -18 -27 -16 -20 2 4 10 -1 15 -14 15 -36 0 -21 19 18 23 20 2 39 4
42 5 3 1 16 -7 30 -18z m-664 -18 c-9 -9 -37 8 -31 18 5 8 11 7 21 -1 8 -6 12
-14 10 -17z m543 -57 c-11 -11 -39 19 -39 42 0 7 -9 13 -20 13 -22 0 -27 16
-7 23 17 7 78 -65 66 -78z m1231 75 c0 -5 -4 -10 -10 -10 -5 0 -10 5 -10 10 0
6 5 10 10 10 6 0 10 -4 10 -10z m70 -6 c0 -8 -4 -12 -10 -9 -5 3 -10 10 -10
16 0 5 5 9 10 9 6 0 10 -7 10 -16z m-1740 -4 c0 -5 -2 -10 -4 -10 -3 0 -8 5
-11 10 -3 6 -1 10 4 10 6 0 11 -4 11 -10z m150 -12 c0 -13 -32 -6 -37 9 -3 7
3 9 16 6 12 -3 21 -10 21 -15z m470 12 c0 -5 -5 -10 -11 -10 -5 0 -7 5 -4 10
3 6 8 10 11 10 2 0 4 -4 4 -10z m120 -30 c0 -14 -14 -12 -28 2 -19 19 -14 30
8 18 11 -6 20 -15 20 -20z m-74 -7 c-7 -7 -26 7 -26 19 0 6 6 6 15 -2 9 -7 13
-15 11 -17z m1039 17 c3 -5 -3 -10 -14 -10 -12 0 -21 5 -21 10 0 6 6 10 14 10
8 0 18 -4 21 -10z m-45 -10 c0 -5 -2 -10 -4 -10 -3 0 -8 5 -11 10 -3 6 -1 10
4 10 6 0 11 -4 11 -10z m-1025 -10 c3 -5 1 -10 -4 -10 -6 0 -11 5 -11 10 0 6
2 10 4 10 3 0 8 -4 11 -10z m1001 -18 c-9 -9 -37 8 -31 18 5 8 11 7 21 -1 8
-6 12 -14 10 -17z m-2119 12 c-3 -3 -12 -4 -19 -1 -8 3 -5 6 6 6 11 1 17 -2
13 -5z m593 -4 c8 -5 11 -10 5 -10 -5 0 -17 5 -25 10 -8 5 -10 10 -5 10 6 0
17 -5 25 -10z m270 -10 c0 -5 -5 -10 -11 -10 -5 0 -7 5 -4 10 3 6 8 10 11 10
2 0 4 -4 4 -10z m230 0 c13 -9 13 -10 0 -9 -8 0 -24 4 -35 9 l-20 9 20 0 c11
0 27 -4 35 -9z m365 -1 c11 -17 -1 -21 -15 -4 -8 9 -8 15 -2 15 6 0 14 -5 17
-11z m16 -32 c21 4 30 0 39 -17 6 -12 9 -24 7 -27 -8 -7 -137 8 -137 16 0 4 5
12 12 19 8 8 8 15 -3 28 -10 12 -5 11 20 -4 23 -14 44 -19 62 -15z m219 2 c0
-6 -7 -6 -20 1 -11 6 -20 15 -20 21 0 6 7 6 20 -1 11 -6 20 -15 20 -21z
m-1130 6 c7 -9 10 -18 6 -22 -8 -9 -56 14 -56 27 0 15 36 12 50 -5z m620 -32
c0 -18 -20 -16 -42 4 -31 28 -23 45 12 25 16 -9 30 -23 30 -29z m169 13 c9
-11 8 -15 -5 -20 -25 -9 -72 -7 -79 4 -4 7 9 9 37 5 24 -3 37 -2 31 1 -15 6
-17 24 -4 24 5 0 14 -6 20 -14z m-1403 -28 c5 -8 2 -9 -10 -5 -10 4 -22 7 -27
7 -5 0 -9 7 -9 15 0 12 4 14 19 5 11 -5 23 -15 27 -22z m1139 22 c3 -5 -1 -10
-9 -10 -8 0 -18 5 -21 10 -3 6 1 10 9 10 8 0 18 -4 21 -10z m510 -6 c20 -15
20 -16 -4 -12 -14 2 -26 9 -29 16 -5 16 9 15 33 -4z m-891 -4 c25 -9 37 -40
16 -40 -5 0 -10 7 -10 16 0 10 -6 13 -19 9 -12 -3 -21 0 -25 10 -6 17 3 19 38
5z m546 0 c0 -5 -2 -10 -4 -10 -3 0 -8 5 -11 10 -3 6 -1 10 4 10 6 0 11 -4 11
-10z m-473 -6 c-3 -3 -12 -4 -19 -1 -8 3 -5 6 6 6 11 1 17 -2 13 -5z m68 -34
c3 -5 2 -10 -4 -10 -5 0 -13 5 -16 10 -3 6 -2 10 4 10 5 0 13 -4 16 -10z m95
0 c0 -5 -5 -10 -11 -10 -5 0 -7 5 -4 10 3 6 8 10 11 10 2 0 4 -4 4 -10z m710
-27 c0 -17 -4 -16 -40 2 -17 9 -30 13 -30 10 0 -4 -6 -3 -12 1 -20 13 34 22
60 11 12 -6 22 -16 22 -24z m76 22 c18 -14 18 -14 -7 -15 -14 0 -34 7 -45 15
-18 14 -18 14 7 15 14 0 34 -7 45 -15z m-46 -25 c0 -5 -4 -10 -10 -10 -5 0
-10 5 -10 10 0 6 5 10 10 10 6 0 10 -4 10 -10z m-252 -32 c6 -6 12 -14 12 -19
0 -9 -21 -6 -95 14 l-40 11 35 6 c38 8 68 3 88 -12z m-620 1 c18 -6 30 -14 27
-19 -7 -12 -53 0 -59 16 -6 17 -7 17 32 3z m122 -57 c-1 -14 -40 43 -40 58 0
8 9 0 20 -18 11 -18 20 -36 20 -40z m324 57 c49 -14 34 -30 -19 -19 -22 4 -35
9 -30 10 6 1 -3 6 -20 10 l-30 8 30 1 c17 0 47 -4 69 -10z m-266 -42 c4 -18
-14 -22 -37 -8 -7 5 -10 14 -6 20 10 17 39 9 43 -12z m243 5 c52 1 152 -41
169 -71 6 -12 16 -18 25 -15 8 4 15 2 15 -4 0 -6 -6 -13 -12 -15 -9 -4 -8 -6
2 -6 8 0 21 3 29 8 8 5 21 7 29 3 13 -4 12 -7 -4 -13 -17 -7 -17 -8 -1 -8 22
-1 64 -28 71 -46 4 -11 -1 -11 -29 1 -46 19 -56 -1 -12 -22 30 -15 39 -15 66
-3 32 14 41 29 18 29 -8 0 -24 11 -37 25 -13 14 -30 25 -37 25 -8 0 -12 4 -8
10 3 5 -9 24 -27 41 -28 28 -30 31 -11 27 12 -3 24 -1 25 4 5 15 92 -55 96
-76 3 -14 0 -17 -13 -12 -15 5 -16 4 -5 -9 7 -8 20 -15 29 -15 37 -1 68 -58
32 -61 -9 -1 -23 -3 -31 -4 -8 -1 -20 -3 -27 -4 -7 0 -10 -7 -7 -14 3 -8 -7
-17 -23 -23 -36 -13 -83 3 -83 28 0 11 -7 18 -20 18 -11 0 -34 13 -51 30 -18
17 -47 32 -68 35 -20 4 -44 8 -53 10 -10 2 -18 -1 -18 -6 0 -5 5 -9 11 -9 5 0
7 -5 3 -11 -5 -8 -8 -8 -14 0 -4 7 -20 15 -36 20 -22 6 -28 13 -26 29 2 15 -9
30 -40 52 -24 17 -47 38 -51 46 -12 21 13 18 37 -5 12 -10 32 -22 46 -25 24
-7 24 -6 -2 9 -16 9 -28 19 -28 24 0 14 13 22 20 11 3 -5 26 -9 51 -8z m-1295
-14 c3 -5 4 -12 1 -14 -6 -6 -47 18 -47 27 0 10 39 -1 46 -13z m1187 -40 c29
-23 35 -33 25 -39 -10 -7 -9 -9 4 -9 30 0 27 -15 -3 -16 -16 -1 -29 2 -29 6 0
4 -11 11 -25 14 -28 7 -34 36 -7 36 9 1 0 7 -21 15 -51 18 -54 22 -15 23 21 0
44 -9 71 -30z m337 -8 c12 -23 3 -25 -22 -6 -22 16 -23 26 -3 26 8 0 19 -9 25
-20z m-1000 -15 c0 -9 -6 -12 -15 -9 -8 4 -15 10 -15 15 0 5 7 9 15 9 8 0 15
-7 15 -15z m-553 -27 c-3 -8 -6 -5 -6 6 -1 11 2 17 5 13 3 -3 4 -12 1 -19z
m633 12 c0 -5 -6 -10 -14 -10 -8 0 -18 5 -21 10 -3 6 3 10 14 10 12 0 21 -4
21 -10z m-433 -32 c7 -5 17 -7 23 -3 6 3 10 -3 10 -15 0 -17 -4 -19 -27 -14
-16 4 -32 12 -38 19 -5 6 -15 10 -21 8 -6 -2 -14 3 -18 12 -5 14 -1 15 27 10
17 -4 37 -12 44 -17z m748 4 c-3 -3 -11 0 -18 7 -9 10 -8 11 6 5 10 -3 15 -9
12 -12z m250 -22 c3 -5 1 -10 -4 -10 -6 0 -11 5 -11 10 0 6 2 10 4 10 3 0 8
-4 11 -10z m-930 -11 c4 -5 17 -9 29 -7 28 3 76 -27 76 -48 0 -17 -21 -15 -22
1 -1 14 -31 34 -41 28 -4 -2 -5 -9 -1 -14 3 -5 -9 -1 -27 9 -18 10 -34 23 -37
30 -5 15 14 16 23 1z m300 1 c3 -5 1 -10 -4 -10 -6 0 -11 5 -11 10 0 6 2 10 4
10 3 0 8 -4 11 -10z m676 -7 c13 -15 12 -15 -8 -4 -24 12 -29 21 -14 21 5 0
15 -7 22 -17z m223 -14 c6 -5 0 -12 -14 -17 -23 -9 -60 10 -60 31 0 10 61 -1
74 -14z m-1488 -13 c20 -21 17 -28 -6 -14 -11 7 -20 16 -20 20 0 12 10 9 26
-6z m1194 -2 c0 -8 -4 -12 -10 -9 -5 3 -10 10 -10 16 0 5 5 9 10 9 6 0 10 -7
10 -16z m-543 -23 c20 -26 15 -39 -13 -33 -15 3 -29 13 -31 23 -3 11 -12 19
-19 19 -8 0 -14 4 -14 10 0 15 63 -1 77 -19z m1273 19 c12 -8 11 -10 -7 -10
-12 0 -25 5 -28 10 -8 13 15 13 35 0z m-1780 -19 c0 -30 -17 -34 -22 -6 -4 17
-1 25 8 25 8 0 14 -9 14 -19z m1241 3 c11 -10 35 -16 58 -16 23 0 43 -3 46 -9
4 -5 14 -9 24 -9 9 0 26 -7 37 -16 18 -15 18 -15 -6 -10 -24 5 -24 4 -6 -9 11
-8 23 -15 28 -15 14 0 9 -18 -8 -24 -15 -6 -43 14 -45 31 0 12 -59 56 -59 44
0 -6 -8 -7 -17 -4 -12 5 -15 2 -10 -10 10 -26 -11 -20 -38 9 -18 20 -25 23
-25 11 0 -19 23 -44 50 -52 31 -10 89 -66 83 -81 -7 -18 12 -18 29 -1 10 11
16 9 34 -12 28 -32 21 -46 -12 -25 -19 13 -27 14 -39 4 -8 -7 -24 -10 -35 -7
-15 4 -20 0 -21 -16 -1 -20 -2 -19 -8 3 -6 22 -13 25 -52 26 -47 2 -106 26
-125 52 -6 9 -18 13 -27 9 -9 -3 -19 -2 -22 3 -10 16 -35 12 -35 -5 0 -18 -12
-19 -28 -3 -14 14 -16 0 -3 -21 5 -7 14 -11 20 -7 18 11 78 -59 75 -88 -2 -16
8 -39 27 -62 17 -22 25 -40 19 -44 -6 -4 -4 -15 6 -29 12 -17 19 -20 24 -11
11 19 40 4 40 -20 0 -23 -10 -26 -28 -8 -9 9 -12 9 -12 0 0 -14 35 -34 44 -25
3 3 6 1 6 -6 0 -7 5 -9 10 -6 6 3 10 1 10 -5 0 -16 -29 -24 -44 -11 -7 6 -20
9 -28 6 -8 -3 -25 6 -38 20 -29 30 -45 33 -30 4 10 -18 9 -20 -7 -17 -10 2
-22 13 -28 26 -5 12 -13 22 -17 22 -5 0 -8 7 -8 15 0 8 -7 15 -15 15 -8 0 -15
5 -15 12 0 6 -3 8 -7 5 -3 -4 2 -16 12 -27 18 -19 17 -20 -1 -20 -11 0 -24 4
-29 9 -6 5 -21 12 -35 16 -18 4 -21 3 -11 -3 8 -6 11 -17 8 -26 -3 -8 -2 -18
3 -21 5 -3 7 -20 3 -37 -5 -27 -4 -30 11 -25 10 4 19 7 21 7 2 0 1 10 -2 21
-4 12 -2 20 3 17 5 -2 23 -11 41 -18 17 -8 34 -22 36 -32 6 -22 -11 -24 -19
-3 -6 14 -34 22 -34 9 0 -15 22 -44 34 -44 7 0 23 -11 36 -25 27 -29 50 -32
50 -7 1 15 3 14 19 -4 12 -16 25 -20 43 -17 14 3 39 -2 54 -11 16 -8 23 -15
17 -16 -23 0 -14 -15 22 -34 33 -18 46 -36 26 -36 -29 0 -60 22 -69 49 -6 17
-16 31 -21 31 -16 0 -13 -16 4 -34 16 -16 20 -36 7 -36 -5 0 -16 8 -26 18 -9
11 -35 25 -59 31 -23 7 -47 17 -54 23 -7 5 -22 11 -35 12 -78 9 -113 31 -69
43 30 8 3 32 -31 27 -27 -3 -28 -1 -28 41 0 35 -4 45 -16 45 -11 0 -15 6 -11
20 3 11 4 20 2 20 -2 0 -11 3 -20 7 -14 5 -16 2 -11 -15 6 -17 4 -21 -8 -16
-8 3 -18 14 -21 25 -7 20 -25 26 -25 8 0 -5 -4 -7 -10 -4 -23 14 -30 -7 -10
-32 21 -26 27 -63 11 -63 -5 0 -11 4 -13 9 -1 5 -34 15 -72 22 -38 8 -71 20
-74 27 -2 6 3 12 12 12 9 0 16 4 16 9 0 13 -34 23 -68 21 -50 -4 -52 -3 -40
31 8 23 15 29 29 26 13 -4 19 0 19 12 0 22 51 52 57 34 3 -7 14 -13 26 -13 22
1 22 1 2 16 -19 14 -19 16 -3 28 10 7 19 25 20 40 2 16 8 26 18 26 8 0 35 11
60 25 99 53 118 59 137 43 10 -8 13 -6 13 5 0 8 -6 18 -12 21 -7 3 3 3 22 0
31 -4 33 -3 18 9 -10 8 -18 19 -18 25 0 14 76 8 96 -9 12 -10 17 -10 23 -1 6
10 14 9 36 -2 36 -19 42 -14 21 18 -21 32 -20 34 7 38 12 2 28 -4 35 -12 12
-13 13 -13 8 4 -6 17 8 46 22 46 3 0 13 -7 23 -16z m-1196 -3 c3 -5 1 -12 -5
-16 -5 -3 -10 1 -10 9 0 18 6 21 15 7z m1720 -11 c3 -4 -10 -10 -29 -12 -23
-2 -32 0 -29 8 5 13 51 16 58 4z m-1601 -16 c4 -10 1 -14 -6 -12 -15 5 -23 28
-10 28 5 0 13 -7 16 -16z m116 -20 c0 -9 -7 -14 -17 -12 -25 5 -28 28 -4 28
12 0 21 -6 21 -16z m1359 -3 c20 -13 6 -42 -16 -34 -15 5 -16 3 -5 -8 17 -18
15 -46 -4 -53 -23 -9 -36 3 -29 25 4 13 1 21 -10 25 -15 6 -14 10 7 30 25 25
36 28 57 15z m-1594 -11 c3 -5 1 -10 -4 -10 -6 0 -11 5 -11 10 0 6 2 10 4 10
3 0 8 -4 11 -10z m195 -26 c0 -8 -4 -14 -10 -14 -5 0 -10 9 -10 21 0 11 5 17
10 14 6 -3 10 -13 10 -21z m138 10 c-9 -9 -21 -13 -27 -10 -20 13 -11 26 16
26 25 0 26 -1 11 -16z m170 -1 c6 -19 -33 -16 -49 3 -11 14 -9 15 16 12 16 -1
30 -9 33 -15z m118 -9 c21 -22 22 -27 10 -40 -23 -22 -37 -17 -34 14 1 15 -1
33 -6 40 -13 21 6 13 30 -14z m-576 -4 c0 -5 -7 -10 -15 -10 -8 0 -15 5 -15
10 0 6 7 10 15 10 8 0 15 -4 15 -10z m65 0 c12 -19 -5 -30 -25 -17 -11 6 -20
15 -20 19 0 12 38 10 45 -2z m1321 -14 c8 -8 14 -19 14 -25 0 -15 -23 -14 -38
1 -15 15 -16 38 -1 38 6 0 17 -6 25 -14z m-880 -28 c3 -11 3 -23 -1 -26 -8 -8
-35 26 -35 45 0 19 28 4 36 -19z m-201 12 c3 -5 1 -10 -4 -10 -6 0 -11 5 -11
10 0 6 2 10 4 10 3 0 8 -4 11 -10z m105 -5 c0 -8 -4 -15 -10 -15 -5 0 -10 7
-10 15 0 8 5 15 10 15 6 0 10 -7 10 -15z m31 0 c0 -6 7 -20 15 -32 11 -18 11
-23 2 -23 -7 0 -19 12 -25 27 -16 33 -16 46 -2 41 6 -2 10 -8 10 -13z m-227
-10 c3 -9 0 -15 -9 -15 -8 0 -15 7 -15 15 0 8 4 15 9 15 5 0 11 -7 15 -15z
m135 -20 c1 6 5 4 10 -3 11 -17 -9 -62 -28 -62 -11 0 -11 3 0 16 10 12 10 20
1 35 -7 11 -9 25 -6 31 5 8 10 5 15 -8 4 -10 8 -14 8 -9z m-169 -5 c0 -5 -4
-10 -9 -10 -6 0 -13 5 -16 10 -3 6 1 10 9 10 9 0 16 -4 16 -10z m1379 -4 c15
-8 38 -12 49 -9 12 3 33 -2 47 -11 13 -9 31 -16 39 -16 8 0 17 -6 20 -12 5
-10 7 -10 12 0 7 14 34 16 34 2 0 -5 -5 -10 -12 -10 -6 0 -9 -2 -7 -5 11 -10
47 8 42 21 -7 18 1 18 35 -3 16 -10 27 -23 25 -30 -2 -6 13 -14 37 -18 22 -4
48 -14 57 -23 22 -23 -1 -28 -32 -8 -33 22 -52 21 -32 -2 9 -10 26 -18 39 -19
12 -1 24 -7 26 -13 2 -5 10 -10 18 -10 8 0 14 -4 14 -10 0 -5 -6 -10 -14 -10
-8 0 -18 5 -21 10 -3 6 -13 10 -21 10 -12 0 -12 -4 -4 -20 10 -20 8 -20 -65
-15 -69 4 -75 3 -75 -15 0 -10 9 -25 21 -33 14 -10 17 -17 9 -22 -7 -4 -30 10
-56 36 -24 24 -44 38 -44 31 0 -7 6 -12 13 -12 6 0 4 -5 -5 -11 -10 -5 -18
-15 -18 -21 0 -6 3 -8 7 -5 3 4 21 -4 39 -18 18 -14 39 -25 46 -25 10 0 9 -3
-2 -10 -13 -8 -12 -11 5 -24 11 -8 32 -18 48 -21 15 -4 27 -11 27 -17 0 -12
-52 -1 -60 12 -3 5 -19 12 -35 15 -17 4 -46 24 -66 44 -47 47 -105 82 -149 88
l-35 6 19 -22 c11 -11 17 -24 14 -27 -15 -14 -168 57 -168 79 0 12 13 8 44
-12 17 -11 34 -17 39 -14 6 3 7 1 3 -5 -5 -8 2 -12 18 -12 33 0 32 3 -4 40
-29 30 -42 69 -18 54 6 -4 17 1 25 12 11 15 17 17 33 6 34 -21 37 -13 5 12
-26 21 -32 22 -45 11 -14 -12 -17 -11 -28 6 -12 19 -11 20 7 14 19 -6 20 -5 6
21 -18 35 -15 38 21 19 36 -19 64 -21 46 -3 -12 12 -17 38 -7 38 4 0 19 -7 34
-14z m-1491 -20 c3 -12 -1 -17 -10 -14 -7 3 -15 13 -16 22 -3 12 1 17 10 14 7
-3 15 -13 16 -22z m995 -7 c20 -17 37 -37 37 -44 0 -7 6 -16 13 -18 6 -3 -4
-5 -23 -5 -19 0 -27 2 -18 5 15 4 15 6 0 33 -9 16 -30 35 -47 44 -16 8 -23 15
-15 15 9 1 32 -13 53 -30z m-606 -24 c17 -13 16 -14 -10 -15 -20 0 -30 6 -36
23 -11 29 -1 45 15 23 7 -10 21 -24 31 -31z m958 35 c3 -5 3 -15 0 -20 -7 -12
-45 5 -45 20 0 13 37 13 45 0z m-1170 -20 c3 -5 2 -10 -4 -10 -5 0 -13 5 -16
10 -3 6 -2 10 4 10 5 0 13 -4 16 -10z m52 -15 c8 -9 12 -19 8 -23 -4 -4 -10
-1 -12 6 -3 6 -11 12 -19 12 -8 0 -14 5 -14 10 0 15 19 12 37 -5z m1897 -29
c17 -14 24 -26 18 -30 -6 -4 -26 7 -44 23 -39 36 -17 42 26 7z m-1754 -27 c0
-5 -4 -9 -10 -9 -5 0 -10 7 -10 16 0 8 5 12 10 9 6 -3 10 -10 10 -16z m-282 0
c-2 -6 7 -18 20 -26 20 -14 22 -14 23 3 1 11 1 22 0 27 0 4 5 7 12 7 15 0 39
-58 30 -72 -7 -13 -60 -2 -90 17 -26 17 -31 55 -8 55 8 0 14 -5 13 -11z m182
2 c0 -6 -5 -13 -11 -17 -8 -4 -7 -9 2 -15 16 -10 -1 -12 -25 -3 -12 5 -13 10
-5 25 10 19 39 27 39 10z m904 -46 c3 -9 0 -15 -9 -15 -8 0 -15 -4 -15 -10 0
-11 -61 -2 -75 12 -6 7 5 8 33 3 26 -4 42 -3 42 3 0 6 -6 13 -12 15 -7 3 -3 6
8 6 12 1 24 -6 28 -14z m-112 -31 c11 -24 16 -26 62 -21 47 4 53 2 81 -27 39
-42 65 -74 65 -84 0 -4 12 -20 26 -37 15 -17 23 -22 20 -12 -6 20 7 22 26 3 8
-8 23 -16 34 -18 16 -4 15 -7 -9 -16 -24 -10 -34 -9 -60 5 -18 10 -35 22 -39
28 -5 6 -11 6 -19 -2 -8 -8 -6 -13 10 -18 21 -7 29 -25 11 -25 -6 0 -22 7 -36
17 -19 12 -22 18 -12 25 10 8 10 11 1 15 -7 2 -13 10 -13 17 0 7 -15 17 -34
23 -42 13 -41 -3 2 -30 27 -18 27 -18 2 -11 -34 9 -74 46 -59 55 7 4 -2 12
-20 20 -22 10 -31 19 -28 31 3 9 -6 27 -19 39 -25 23 -32 49 -14 49 6 0 16
-12 22 -26z m188 17 c0 -5 17 -18 37 -28 21 -10 43 -29 50 -43 7 -14 25 -35
40 -47 15 -13 24 -23 19 -23 -6 0 -1 -7 10 -15 18 -13 17 -14 -17 -15 -20 0
-42 6 -48 13 -14 18 -2 30 16 15 9 -7 17 -8 23 -2 6 6 -11 17 -46 29 -44 15
-54 22 -51 37 3 11 0 18 -10 18 -8 0 -12 4 -9 9 4 5 -3 7 -14 4 -16 -4 -19 -2
-14 11 4 9 3 16 -2 15 -20 -3 -24 2 -12 16 15 16 28 19 28 6z m1000 -7 c0 -11
-8 -14 -27 -12 -39 4 -42 28 -4 28 21 0 31 -5 31 -16z m1707 -26 c-3 -8 -6 -5
-6 6 -1 11 2 17 5 13 3 -3 4 -12 1 -19z m-3920 -14 c-3 -3 -12 -4 -19 -1 -8 3
-5 6 6 6 11 1 17 -2 13 -5z m1733 -64 c0 -5 -4 -10 -10 -10 -5 0 -10 5 -10 10
0 6 5 10 10 10 6 0 10 -4 10 -10z m-1034 -14 c16 5 16 4 4 -5 -13 -9 -13 -11
3 -11 21 0 22 -13 1 -31 -14 -11 -20 -9 -40 15 -25 28 -24 57 1 36 7 -6 21 -8
31 -4z m1472 -47 l23 -29 -25 -9 c-31 -12 -103 18 -86 35 8 8 6 15 -5 24 -14
11 -14 14 2 25 20 15 56 -3 91 -46z m-1655 7 c20 -5 27 -3 27 8 0 11 5 12 25
3 14 -7 23 -17 20 -24 -2 -7 0 -15 5 -18 6 -4 10 -17 10 -30 0 -13 5 -27 10
-30 13 -8 13 -35 1 -35 -5 0 -13 10 -17 23 -13 41 -46 79 -65 74 -19 -5 -119
39 -119 52 0 5 17 3 38 -4 20 -7 49 -15 65 -19z m757 24 c0 -5 -2 -10 -4 -10
-3 0 -8 5 -11 10 -3 6 -1 10 4 10 6 0 11 -4 11 -10z m240 -22 c0 -22 -15 -16
-30 12 -8 15 -7 17 10 13 11 -3 20 -14 20 -25z m234 17 c-7 -17 -20 -20 -28
-6 -4 5 0 12 6 14 23 9 28 7 22 -8z m-322 -7 c-9 -9 -15 -9 -24 0 -9 9 -7 12
12 12 19 0 21 -3 12 -12z m630 -15 c16 -19 4 -27 -22 -13 -12 6 -27 9 -34 7
-6 -3 -20 1 -30 8 -15 12 -12 13 28 13 26 -1 51 -7 58 -15z m-1059 -2 c4 0 7
-6 7 -11 0 -13 -38 -8 -65 8 -18 10 -16 11 15 8 19 -2 38 -4 43 -5z m90 -16
c26 -11 47 -23 47 -27 0 -13 -45 -9 -66 7 -12 8 -24 11 -28 7 -9 -8 -26 19
-19 31 2 4 8 7 12 5 4 -2 28 -12 54 -23z m367 15 c0 -5 -10 -10 -22 -10 -19 0
-20 2 -8 10 19 13 30 13 30 0z m-816 -15 c-4 -8 -11 -15 -16 -15 -6 0 -5 6 2
15 7 8 14 15 16 15 2 0 1 -7 -2 -15z m79 -19 c4 -10 1 -13 -9 -9 -7 3 -14 9
-14 14 0 14 17 10 23 -5z m1067 4 c0 -5 -4 -10 -10 -10 -5 0 -10 5 -10 10 0 6
5 10 10 10 6 0 10 -4 10 -10z m-1448 -15 c1 -5 8 -16 17 -23 14 -11 10 -13
-25 -8 -23 3 -54 13 -70 21 -26 13 -26 15 -7 15 12 0 24 -6 27 -12 4 -10 9 -8
18 5 13 18 38 20 40 2z m603 5 c8 -13 -15 -13 -35 0 -12 8 -11 10 7 10 12 0
25 -4 28 -10z m631 -17 c-3 -3 -13 -2 -23 2 -17 7 -17 8 2 15 19 7 34 -5 21
-17z m413 10 c3 -2 -12 -2 -31 -1 -20 2 -34 6 -31 11 4 6 52 -1 62 -10z m62
-17 c15 -13 25 -26 22 -29 -6 -7 -63 33 -63 45 0 13 11 9 41 -16z m-873 -15
c25 -22 28 -31 9 -31 -12 0 -47 34 -47 45 0 10 16 4 38 -14z m-483 -1 c3 -5
-3 -10 -14 -10 -11 0 -23 5 -26 10 -3 6 3 10 14 10 11 0 23 -4 26 -10z m75 0
c0 -5 -7 -10 -15 -10 -8 0 -15 5 -15 10 0 6 7 10 15 10 8 0 15 -4 15 -10z
m680 -11 c0 -6 -4 -7 -10 -4 -5 3 -10 11 -10 16 0 6 5 7 10 4 6 -3 10 -11 10
-16z m-899 -13 c31 -27 27 -39 -8 -25 -25 9 -51 49 -32 49 6 0 24 -11 40 -24z
m827 4 c10 -17 10 -20 -3 -20 -8 0 -15 5 -15 11 0 5 -5 7 -10 4 -6 -4 -8 -11
-5 -16 7 -10 -8 -12 -18 -2 -7 6 21 43 32 43 3 0 12 -9 19 -20z m-99 -6 c2 -2
2 -7 -2 -10 -8 -9 -47 6 -47 17 0 9 37 3 49 -7z m701 6 c8 -5 11 -12 8 -16 -4
-3 -14 1 -23 10 -18 17 -9 21 15 6z m-1131 -26 c2 -2 -12 -4 -32 -4 -20 0 -39
5 -42 11 -5 7 5 8 32 3 21 -4 40 -8 42 -10z m-130 -5 c25 -9 29 -14 20 -25 -9
-11 -5 -16 15 -25 25 -12 36 -39 16 -39 -5 0 -10 4 -10 9 0 12 -98 43 -110 36
-6 -4 -10 -1 -10 4 0 6 -7 11 -15 11 -8 0 -15 6 -15 13 0 14 34 16 46 4 14
-13 36 -7 30 8 -6 18 -7 18 33 4z m501 7 c0 -3 -4 -8 -10 -11 -5 -3 -10 -1
-10 4 0 6 5 11 10 11 6 0 10 -2 10 -4z m79 -27 c17 -6 31 -15 31 -20 0 -13 -5
-11 -42 11 -37 23 -35 25 11 9z m-754 -9 c8 -13 -15 -13 -35 0 -12 8 -11 10 7
10 12 0 25 -4 28 -10z m370 -2 c14 -6 25 -15 25 -20 0 -6 -6 -7 -12 -4 -7 3
-21 9 -30 12 -10 4 -18 10 -18 15 0 12 4 11 35 -3z m-68 -28 c29 -26 31 -30
13 -30 -21 0 -60 33 -60 50 0 16 10 12 47 -20z m403 -6 c0 -2 -7 -4 -15 -4 -8
0 -15 4 -15 10 0 5 7 7 15 4 8 -4 15 -8 15 -10z m1101 1 c24 -10 28 -14 14
-14 -21 0 -78 28 -59 29 7 0 27 -7 45 -15z m-1625 -22 c-8 -20 10 -33 47 -33
16 0 27 -5 25 -11 -2 -6 -7 -10 -11 -10 -25 1 -86 14 -112 24 -16 6 -34 12
-40 13 -5 0 -16 2 -22 2 -7 1 -13 7 -13 12 0 14 44 13 76 -2 23 -11 29 -10 38
5 14 22 20 22 12 0z m1774 2 c16 -19 10 -19 -26 0 -25 13 -26 15 -8 15 12 0
27 -7 34 -15z m-1060 -4 c0 -5 -9 -7 -20 -4 -11 3 -20 7 -20 9 0 2 9 4 20 4
11 0 20 -4 20 -9z m-2105 -19 c-3 -3 -11 0 -18 7 -9 10 -8 11 6 5 10 -3 15 -9
12 -12z m1633 6 c30 -30 5 -37 -29 -8 -23 19 -23 19 -3 20 11 0 25 -5 32 -12z
m1898 -9 c3 -5 -1 -9 -8 -9 -23 0 -58 12 -58 19 0 10 59 1 66 -10z m214 11 c0
-5 -9 -10 -19 -10 -11 0 -23 5 -26 10 -4 6 5 10 19 10 14 0 26 -4 26 -10z
m-1995 -10 c3 -5 -1 -10 -9 -10 -8 0 -18 5 -21 10 -3 6 1 10 9 10 8 0 18 -4
21 -10z m205 0 c12 -8 11 -10 -7 -10 -13 0 -23 5 -23 10 0 13 11 13 30 0z
m1171 -10 c28 -16 23 -30 -6 -17 -14 7 -25 15 -25 20 0 10 8 9 31 -3z m89 -10
c0 -5 -9 -10 -20 -10 -11 0 -20 5 -20 10 0 6 9 10 20 10 11 0 20 -4 20 -10z
m553 3 c-7 -2 -19 -2 -25 0 -7 3 -2 5 12 5 14 0 19 -2 13 -5z m-3673 -13 c12
-8 11 -10 -7 -10 -13 0 -23 5 -23 10 0 13 11 13 30 0z m773 -10 c10 -10 8 -12
-6 -6 -10 3 -27 6 -38 6 -10 0 -19 4 -19 9 0 14 49 7 63 -9z m1012 11 c10 -17
-11 -21 -31 -6 -18 14 -18 14 3 15 12 0 24 -4 28 -9z m1585 -1 c0 -5 -9 -10
-19 -10 -11 0 -23 5 -26 10 -4 6 5 10 19 10 14 0 26 -4 26 -10z m-1717 -43
c-3 -5 -14 1 -24 12 -26 28 -24 35 5 14 13 -10 22 -22 19 -26z m2122 33 c-3
-5 -13 -10 -21 -10 -8 0 -12 5 -9 10 3 6 13 10 21 10 8 0 12 -4 9 -10z m-950
-10 c3 -5 1 -10 -4 -10 -6 0 -11 5 -11 10 0 6 2 10 4 10 3 0 8 -4 11 -10z
m-1855 -10 c0 -5 -5 -10 -11 -10 -5 0 -7 5 -4 10 3 6 8 10 11 10 2 0 4 -4 4
-10z m2351 -16 c18 -16 22 -17 32 -4 14 18 59 14 70 -6 4 -8 15 -14 23 -14 8
0 13 -4 10 -9 -10 -15 -65 -21 -143 -14 l-76 6 26 21 26 21 -30 1 c-17 1 -36
7 -42 14 -20 21 80 6 104 -16z m-1501 6 c0 -5 -7 -10 -15 -10 -8 0 -15 5 -15
10 0 6 7 10 15 10 8 0 15 -4 15 -10z m1333 3 c-7 -2 -19 -2 -25 0 -7 3 -2 5
12 5 14 0 19 -2 13 -5z m564 -9 c-3 -3 -12 -4 -19 -1 -8 3 -5 6 6 6 11 1 17
-2 13 -5z m-47 -35 c10 -6 0 -9 -30 -9 -25 0 -55 -3 -67 -6 -14 -4 -23 -2 -23
5 0 6 14 11 30 11 17 0 30 5 30 11 0 11 31 5 60 -12z m-416 -30 c20 -6 32 -5
37 2 4 8 15 6 33 -6 18 -12 24 -21 17 -28 -7 -7 -15 -6 -24 1 -7 6 -22 9 -34
6 -11 -3 -34 1 -51 10 -36 18 -57 44 -26 32 10 -5 32 -12 48 -17z m283 -5 c9
-8 10 -15 3 -19 -5 -3 -10 -1 -10 6 0 10 -3 10 -12 1 -13 -13 -52 -17 -45 -4
3 4 -9 7 -25 7 -43 0 -48 23 -6 27 44 4 80 -3 95 -18z m-2467 2 c0 -3 -4 -8
-10 -11 -5 -3 -10 -1 -10 4 0 6 5 11 10 11 6 0 10 -2 10 -4z m2585 -19 c11 -2
1 -5 -22 -6 -24 0 -43 3 -43 8 0 13 23 20 35 11 6 -4 19 -10 30 -13z m-825 -7
c0 -5 -4 -10 -9 -10 -6 0 -13 5 -16 10 -3 6 1 10 9 10 9 0 16 -4 16 -10z m575
-10 c3 -5 15 -10 25 -10 29 0 70 -22 70 -37 0 -15 16 -17 25 -3 3 6 1 10 -5
10 -6 0 -8 5 -5 10 4 6 12 4 22 -6 14 -13 14 -17 2 -25 -19 -12 -56 -11 -64 1
-3 6 -15 10 -26 10 -10 0 -18 6 -16 13 1 8 -8 11 -26 9 -20 -2 -27 1 -22 9 5
8 1 9 -15 4 -20 -6 -21 -5 -9 8 16 19 35 21 44 7z m442 -14 c4 -3 -11 -6 -33
-7 -21 0 -55 -2 -74 -3 -48 -3 -73 6 -40 15 29 8 138 4 147 -5z m-2932 -6 l20
-9 -20 0 c-11 0 -27 4 -35 9 -13 9 -13 10 0 9 8 0 24 -4 35 -9z m455 -42 c0
-24 -64 1 -80 32 -10 19 -9 19 35 -2 25 -12 45 -26 45 -30z m1497 46 c-3 -3
-12 -4 -19 -1 -8 3 -5 6 6 6 11 1 17 -2 13 -5z m426 -1 c3 -5 -6 -9 -19 -9
-13 -1 -24 2 -24 7 0 11 37 12 43 2z m-2273 -13 c0 -5 14 -10 30 -10 17 0 60
-14 95 -32 l65 -31 35 19 c28 15 37 16 47 6 11 -11 10 -12 -2 -8 -8 3 -26 -3
-40 -14 l-25 -19 37 -15 c42 -18 68 -20 68 -7 0 5 -17 12 -37 16 -25 4 -32 9
-23 15 18 11 67 -6 123 -43 22 -15 31 -16 42 -7 9 7 15 8 15 2 0 -15 29 -23
49 -13 10 6 30 5 54 -2 35 -11 50 -27 26 -27 -6 0 -8 -7 -5 -16 5 -13 1 -14
-26 -9 -18 4 -41 13 -50 19 -14 8 -21 8 -27 -2 -7 -12 -14 -11 -39 2 -17 9
-40 16 -52 16 -11 0 -53 11 -92 25 -48 17 -83 23 -104 19 -21 -4 -45 1 -75 15
-23 12 -48 21 -53 21 -6 0 -22 9 -36 21 l-25 20 38 -7 c24 -4 37 -2 37 5 0 6
-8 11 -17 11 -29 1 -71 40 -43 40 6 0 10 -4 10 -10z m2086 -17 c-7 -7 -26 7
-26 19 0 6 6 6 15 -2 9 -7 13 -15 11 -17z m551 11 c-3 -3 -12 -4 -19 -1 -8 3
-5 6 6 6 11 1 17 -2 13 -5z m-2117 -25 c12 -7 11 -8 -6 -9 -11 0 -29 7 -40 16
-18 14 -18 15 6 8 14 -3 32 -10 40 -15z m1431 5 c62 -28 86 -44 67 -44 -22 0
-68 21 -68 31 0 5 -8 8 -17 7 -33 -2 -53 2 -53 12 0 15 33 12 71 -6z m209 -14
c0 -5 -4 -10 -10 -10 -5 0 -10 5 -10 10 0 6 5 10 10 10 6 0 10 -4 10 -10z
m-1730 -20 c0 -5 -5 -10 -11 -10 -5 0 -7 5 -4 10 3 6 8 10 11 10 2 0 4 -4 4
-10z m226 -26 c75 -35 96 -57 33 -35 -22 8 -35 8 -39 1 -8 -13 -112 12 -118
29 -5 14 44 15 53 1 3 -5 18 -10 33 -10 26 1 25 2 -13 25 -56 35 -38 31 51
-11z m2842 1 c-3 -3 -9 2 -12 12 -6 14 -5 15 5 6 7 -7 10 -15 7 -18z m-3018 6
c0 -9 -24 -21 -42 -21 -6 0 -6 6 2 15 14 16 40 20 40 6z m2234 -6 c-4 -10 -10
-12 -18 -7 -6 5 -18 12 -26 15 -8 3 -1 6 17 6 25 1 31 -2 27 -14z m-607 -11
c-3 -3 -12 -4 -19 -1 -8 3 -5 6 6 6 11 1 17 -2 13 -5z m-1302 -14 c3 -5 -3
-10 -15 -10 -12 0 -18 5 -15 10 3 6 10 10 15 10 5 0 12 -4 15 -10z m1705 -18
c0 -9 -9 -23 -20 -29 -17 -11 -21 -10 -31 8 -10 19 -8 20 10 14 14 -4 23 -1
27 9 8 21 14 20 14 -2z m-2271 -14 c14 -1 26 -9 29 -16 3 -10 -4 -10 -33 2
-20 9 -41 13 -46 10 -5 -3 -6 2 -3 11 4 10 10 12 18 6 6 -5 22 -11 35 -13z
m2411 12 c0 -5 -4 -10 -10 -10 -5 0 -10 5 -10 10 0 6 5 10 10 10 6 0 10 -4 10
-10z m-1779 -29 c-8 -5 -20 -7 -28 -4 -21 8 -15 13 15 13 20 0 23 -3 13 -9z
m1524 -1 c3 -5 1 -10 -4 -10 -6 0 -11 5 -11 10 0 6 2 10 4 10 3 0 8 -4 11 -10z
m235 5 c0 -9 -74 -36 -87 -30 -8 2 -18 -5 -23 -18 -5 -12 -9 -17 -9 -11 -1 7
-18 9 -50 6 -28 -2 -56 1 -67 7 -16 10 -13 11 20 7 24 -3 49 0 67 9 15 8 43
15 61 16 18 0 42 4 53 9 24 10 35 12 35 5z m-2005 -15 c3 -5 -3 -10 -14 -10
-12 0 -21 5 -21 10 0 6 6 10 14 10 8 0 18 -4 21 -10z m226 -12 c14 9 25 10 39
2 24 -13 27 -25 4 -16 -21 8 -61 -3 -67 -17 -3 -8 9 -13 34 -13 49 -2 109 -22
109 -37 0 -11 102 -47 133 -47 8 0 21 -8 31 -18 9 -11 34 -25 56 -32 28 -9 37
-16 28 -22 -9 -6 -7 -8 7 -6 39 3 55 -2 55 -17 0 -8 -9 -15 -19 -15 -11 0 -27
-3 -36 -7 -14 -5 -10 -9 16 -17 44 -14 55 -56 15 -56 -14 0 -26 -4 -26 -10 0
-5 18 -10 40 -10 29 0 40 -4 40 -15 0 -8 7 -15 15 -15 8 0 14 6 13 12 -2 7 8
14 20 16 20 3 23 0 18 -16 -4 -11 -2 -23 4 -27 6 -4 10 4 10 19 0 30 20 34 44
10 21 -21 20 -22 -10 -16 -20 4 -25 1 -22 -9 3 -8 14 -15 27 -17 12 -2 33 -14
48 -28 14 -13 37 -24 49 -24 13 0 24 -3 24 -7 -1 -16 -52 -45 -71 -40 -10 3
-19 1 -19 -4 0 -5 -9 -9 -19 -9 -23 0 -37 -16 -19 -23 7 -2 10 -8 6 -12 -4 -4
-14 -2 -23 5 -18 15 -45 6 -45 -14 0 -8 8 -16 18 -19 9 -2 1 -4 -18 -5 -47 -2
-58 -2 -110 4 -25 2 -53 4 -62 5 -31 1 -20 17 25 39 23 11 34 18 24 15 -10 -3
-27 0 -38 5 -18 10 -18 12 6 34 14 13 25 30 25 39 0 10 11 17 33 19 l32 4 -37
17 c-21 9 -51 17 -67 17 -16 0 -48 10 -71 22 -32 18 -43 20 -49 9 -6 -10 -10
-9 -14 3 -4 9 -18 16 -34 16 -29 0 -113 34 -113 46 0 6 32 0 64 -12 9 -3 16
-1 16 5 0 6 -6 11 -13 11 -19 0 -67 24 -67 33 0 5 -13 6 -30 2 -32 -7 -70 1
-70 15 0 5 17 8 38 7 25 -1 36 2 35 11 -2 6 2 12 8 12 5 0 7 4 4 10 -3 5 -23
9 -43 9 -70 0 -115 9 -124 25 -5 9 -20 16 -34 16 -14 0 -23 4 -20 9 4 5 -3 7
-14 4 -13 -4 -20 0 -20 9 0 8 -10 20 -22 27 -20 10 -15 11 30 7 45 -4 53 -3
48 9 -4 11 2 15 24 15 17 0 30 -4 30 -10 0 -5 8 -10 18 -10 26 0 114 -30 132
-45 8 -7 33 -15 55 -18 27 -5 35 -3 25 3 -8 5 -22 10 -31 10 -23 0 -66 36 -55
47 5 4 11 2 13 -4 3 -7 14 -13 26 -13 20 1 19 2 -6 16 -15 8 -32 12 -37 9 -5
-3 -35 2 -67 11 -32 10 -72 16 -89 15 -29 -1 -38 6 -43 34 -3 15 59 22 102 10
27 -7 43 -6 58 3z m1460 -12 c-10 -12 -7 -17 16 -29 15 -8 34 -12 40 -10 7 3
25 -5 39 -16 17 -13 42 -21 68 -22 37 -1 34 -2 -34 -20 -110 -28 -153 -25
-192 11 -36 32 -20 43 20 14 13 -9 30 -13 40 -9 15 6 14 8 -6 16 -13 5 -21 13
-18 18 3 5 -1 11 -9 15 -33 12 -14 43 29 45 15 1 16 -2 7 -13z m-197 -12 c3
-8 2 -12 -4 -9 -6 3 -10 10 -10 16 0 14 7 11 14 -7z m-1148 -9 c16 -8 38 -12
50 -9 12 3 25 1 28 -5 8 -13 -65 -6 -93 9 -12 6 -21 13 -21 15 0 8 6 6 36 -10z
m-586 -15 c13 -9 13 -10 0 -10 -8 0 -22 5 -30 10 -13 9 -13 10 0 10 8 0 22 -5
30 -10z m140 0 c8 -5 11 -12 8 -15 -4 -4 -17 0 -30 9 -24 17 -5 23 22 6z
m1553 -7 c-7 -2 -19 -2 -25 0 -7 3 -2 5 12 5 14 0 19 -2 13 -5z m63 -8 c10 -8
27 -15 37 -15 9 0 17 -4 17 -10 0 -14 -47 -13 -52 1 -2 6 -16 12 -31 12 -22 0
-25 2 -16 13 14 18 21 17 45 -1z m1534 0 c0 -8 -4 -15 -10 -15 -5 0 -10 7 -10
15 0 8 5 15 10 15 6 0 10 -7 10 -15z m-3230 -5 c0 -5 -4 -10 -9 -10 -6 0 -13
5 -16 10 -3 6 1 10 9 10 9 0 16 -4 16 -10z m141 -10 c5 0 9 -4 9 -10 0 -14
-13 -12 -36 6 -17 14 -17 15 -1 10 10 -3 23 -6 28 -6z m1419 0 c0 -5 -4 -10
-9 -10 -6 0 -13 5 -16 10 -3 6 1 10 9 10 9 0 16 -4 16 -10z m1067 -38 c16 -17
17 -38 1 -40 -72 -11 -102 4 -53 26 15 7 25 20 26 34 0 15 3 18 6 8 4 -8 12
-21 20 -28z m-319 -18 c2 -16 -1 -23 -8 -19 -6 3 -8 11 -5 16 4 5 -1 12 -10
15 -13 5 -14 9 -4 15 17 10 22 5 27 -27z m-2198 1 c26 6 47 0 101 -26 38 -19
69 -40 69 -47 0 -16 -29 -9 -85 23 -22 13 -46 21 -53 18 -7 -3 -18 0 -25 5 -7
6 -30 14 -52 18 -32 6 -36 9 -20 14 11 4 23 3 26 -2 4 -6 21 -7 39 -3z m1677
9 c-3 -3 -12 -4 -19 -1 -8 3 -5 6 6 6 11 1 17 -2 13 -5z m8 -34 c17 -7 15 -9
-12 -9 -17 -1 -35 4 -38 9 -7 12 22 12 50 0z m459 -5 c-4 -8 -12 -15 -20 -15
-16 0 -19 -16 -5 -24 5 -4 12 0 14 6 4 10 8 10 15 -1 15 -21 -7 -61 -32 -61
-17 0 -18 2 -7 9 12 8 13 14 2 37 -11 25 -10 30 11 46 28 22 29 22 22 3z m-44
-54 c0 -6 -4 -13 -10 -16 -5 -3 -10 1 -10 9 0 9 5 16 10 16 6 0 10 -4 10 -9z
m-1884 -16 c16 -12 16 -14 3 -15 -9 0 -22 7 -29 15 -16 19 0 19 26 0z m558
-27 c6 -4 7 -10 4 -14 -11 -10 -40 24 -32 38 6 9 9 8 12 -2 3 -8 10 -18 16
-22z m1426 2 c0 -16 -4 -30 -9 -30 -13 0 -21 27 -15 45 10 25 24 17 24 -15z
m-100 -30 c0 -15 -5 -12 -26 11 -19 22 -19 22 4 10 12 -6 22 -16 22 -21z
m-336 13 l38 -6 -29 -12 c-36 -15 -84 -16 -100 -3 -31 25 11 34 91 21z m-1739
-13 c4 -6 10 -8 15 -5 5 3 31 -4 58 -14 27 -11 69 -20 92 -19 23 0 47 -5 53
-11 17 -17 3 -23 -28 -11 -15 6 -36 8 -46 5 -11 -4 -33 1 -51 9 -17 9 -37 16
-45 16 -7 0 -13 5 -13 10 0 6 -5 10 -11 10 -6 0 -8 -7 -5 -17 6 -16 6 -16 -12
0 -10 9 -24 17 -30 17 -6 0 -14 5 -17 10 -3 6 3 10 14 10 11 0 23 -5 26 -10z
m1631 -37 c-8 -9 -36 30 -29 40 3 5 12 -1 20 -13 8 -12 12 -24 9 -27z m-1690
2 c24 -18 7 -19 -26 0 -16 9 -19 14 -9 15 8 0 24 -7 35 -15z m467 -22 c-7 -2
-19 -2 -25 0 -7 3 -2 5 12 5 14 0 19 -2 13 -5z m1197 -13 c9 -16 8 -18 -5 -14
-8 4 -15 12 -15 20 0 20 7 17 20 -6z m-1415 -10 c25 -11 -1 -11 -35 0 -20 6
-21 8 -5 8 11 0 29 -3 40 -8z m1462 4 c-3 -3 -12 -4 -19 -1 -8 3 -5 6 6 6 11
1 17 -2 13 -5z m-1238 -39 c28 -15 23 -17 -41 -19 -25 -1 -38 4 -41 14 -5 21
47 24 82 5z m516 5 c8 -13 -5 -13 -25 0 -13 8 -13 10 2 10 9 0 20 -4 23 -10z
m-618 -6 c-3 -3 -12 -4 -19 -1 -8 3 -5 6 6 6 11 1 17 -2 13 -5z m280 -120 c-3
-3 -12 -4 -19 -1 -8 3 -5 6 6 6 11 1 17 -2 13 -5z m1138 -85 c4 -6 5 -12 2
-15 -7 -7 -37 7 -37 17 0 13 27 11 35 -2z m45 -49 c0 -5 -9 -10 -20 -10 -11 0
-20 5 -20 10 0 6 9 10 20 10 11 0 20 -4 20 -10z m1188 -400 c7 -16 12 -44 10
-61 -3 -28 -5 -25 -19 29 -17 66 -12 81 9 32z m-112 -49 c-3 -4 8 -23 25 -42
23 -27 28 -40 23 -64 -10 -50 -20 -48 -34 6 -8 28 -22 57 -32 64 -19 13 -21
35 -3 47 11 8 27 0 21 -11z m113 -86 c1 -11 -6 -38 -14 -60 -8 -22 -14 -32
-15 -23 0 9 -7 24 -16 33 -9 9 -13 19 -9 23 3 4 14 -2 22 -13 15 -19 15 -18 9
15 -4 19 -9 53 -12 75 l-5 40 20 -35 c11 -19 20 -44 20 -55z m-159 4 c0 -6 18
-37 40 -69 22 -32 40 -66 40 -74 0 -8 5 -18 10 -21 14 -9 12 -27 -2 -23 -7 3
-16 15 -20 29 -4 15 -5 7 -2 -21 l5 -45 -28 67 c-15 37 -29 66 -32 66 -23 -2
-32 4 -27 17 3 8 0 15 -5 15 -7 0 -9 10 -5 28 4 15 7 32 8 39 2 14 18 7 18 -8z
m-30 1 c0 -5 -5 -10 -11 -10 -5 0 -7 5 -4 10 3 6 8 10 11 10 2 0 4 -4 4 -10z
m-15 -39 c8 -17 12 -36 9 -45 -6 -16 19 -60 62 -109 22 -26 23 -58 2 -79 -21
-21 -22 -21 -28 -2 -4 10 -4 26 1 35 9 17 3 29 -15 29 -6 0 -5 -4 2 -9 10 -6
7 -10 -13 -15 -14 -4 -30 -4 -35 -1 -13 8 -12 -2 2 -28 7 -12 13 -33 14 -47 1
-14 0 -17 -3 -7 -4 14 -8 16 -19 6 -8 -6 -32 -15 -53 -19 -34 -6 -41 -4 -49
14 -8 18 -11 13 -22 -32 -8 -29 -21 -58 -28 -65 -13 -10 -14 -8 -9 13 4 14 4
19 1 13 -3 -7 -12 -13 -19 -13 -7 0 -16 -6 -18 -12 -3 -8 -6 -6 -6 4 -1 9 -9
22 -18 27 -16 10 -16 11 4 17 38 11 15 24 -31 18 -27 -4 -46 -2 -50 5 -4 6 -2
11 4 11 18 0 90 54 90 67 0 7 9 17 21 23 12 7 18 17 15 27 -4 9 13 35 46 70
29 31 69 73 88 94 19 21 36 38 37 38 1 1 9 -12 18 -28z m-139 -3 c4 -6 2 -14
-4 -16 -7 -2 -10 -8 -7 -13 4 -5 -2 -6 -11 -2 -14 5 -16 3 -10 -13 5 -14 4
-16 -4 -8 -7 7 -8 19 -1 37 11 29 25 34 37 15z m287 -45 c-4 -23 -2 -25 7 -13
10 13 11 12 6 -3 -3 -10 -6 -28 -6 -40 -1 -15 -5 -9 -15 17 -13 37 -11 66 5
66 4 0 5 -12 3 -27z m-799 -69 c20 -19 21 -34 2 -34 -7 0 -16 11 -18 25 -6 29
-5 30 16 9z m-73 -62 c-7 -2 -18 1 -23 6 -8 8 -4 9 13 5 13 -4 18 -8 10 -11z
m294 8 c-3 -5 -13 -10 -21 -10 -8 0 -12 5 -9 10 3 6 13 10 21 10 8 0 12 -4 9
-10z"/>
<path d="M2820 4174 c0 -9 11 -14 30 -14 34 0 50 -24 31 -43 -10 -9 -12 -9 -9
2 2 8 -5 17 -14 19 -27 5 -22 -15 8 -35 25 -16 27 -16 39 1 27 36 76 -27 53
-68 -8 -14 -6 -15 16 -4 31 14 32 22 6 55 -11 14 -20 32 -20 39 0 8 -9 14 -20
14 -10 0 -29 10 -40 22 -24 26 -80 34 -80 12z"/>
<path d="M2730 4164 c0 -8 5 -12 10 -9 6 3 10 10 10 16 0 5 -4 9 -10 9 -5 0
-10 -7 -10 -16z"/>
<path d="M2770 4171 c0 -6 5 -13 10 -16 6 -3 10 1 10 9 0 9 -4 16 -10 16 -5 0
-10 -4 -10 -9z"/>
<path d="M3005 4100 c19 -12 31 -16 34 -9 4 14 -18 29 -44 29 -17 0 -15 -4 10
-20z"/>
<path d="M2858 4063 c7 -3 16 -2 19 1 4 3 -2 6 -13 5 -11 0 -14 -3 -6 -6z"/>
<path d="M2915 4060 c3 -5 10 -10 16 -10 5 0 9 5 9 10 0 6 -7 10 -16 10 -8 0
-12 -4 -9 -10z"/>
<path d="M3245 4060 c3 -5 8 -10 11 -10 2 0 4 5 4 10 0 6 -5 10 -11 10 -5 0
-7 -4 -4 -10z"/>
<path d="M3280 4064 c0 -17 18 -36 30 -32 7 2 4 10 -9 22 -12 11 -21 15 -21
10z"/>
<path d="M3281 3978 c-1 -10 3 -18 8 -18 5 0 14 -15 21 -32 7 -19 14 -27 17
-20 8 21 -6 62 -21 62 -8 0 -17 6 -19 13 -3 7 -6 5 -6 -5z"/>
<path d="M3307 3853 c-13 -12 -7 -23 13 -23 11 0 20 -4 20 -10 0 -5 5 -10 10
-10 15 0 12 16 -6 34 -17 17 -27 20 -37 9z"/>
<path d="M3210 3825 c-10 -12 -9 -16 5 -21 19 -8 40 9 31 25 -10 15 -21 14
-36 -4z"/>
<path d="M3920 3912 c0 -9 59 -46 65 -40 2 2 -12 13 -31 26 -19 12 -34 19 -34
14z"/>
<path d="M4145 3770 c3 -5 13 -10 21 -10 8 0 14 5 14 10 0 6 -9 10 -21 10 -11
0 -17 -4 -14 -10z"/>
<path d="M3865 3660 c3 -5 17 -10 31 -10 14 0 22 4 19 10 -3 6 -17 10 -31 10
-14 0 -22 -4 -19 -10z"/>
<path d="M3630 3527 c0 -23 30 -49 65 -54 10 -2 28 -12 40 -22 21 -20 45 -18
45 4 0 13 -64 48 -87 48 -6 0 -17 11 -24 24 -16 29 -39 30 -39 0z"/>
<path d="M3680 3530 c0 -5 5 -10 10 -10 6 0 10 5 10 10 0 6 -4 10 -10 10 -5 0
-10 -4 -10 -10z"/>
<path d="M3460 3470 c0 -5 5 -10 10 -10 6 0 10 5 10 10 0 6 -4 10 -10 10 -5 0
-10 -4 -10 -10z"/>
<path d="M3500 3470 c0 -5 5 -10 10 -10 6 0 10 5 10 10 0 6 -4 10 -10 10 -5 0
-10 -4 -10 -10z"/>
<path d="M3516 3431 c-3 -5 3 -11 15 -14 16 -4 18 -3 8 9 -13 16 -16 17 -23 5z"/>
<path d="M3622 3418 c5 -15 28 -23 28 -10 0 5 -7 13 -16 16 -10 4 -14 1 -12
-6z"/>
<path d="M3410 3377 c19 -14 37 -20 39 -15 5 14 -9 24 -44 32 l-30 7 35 -24z"/>
<path d="M3700 3200 c0 -5 10 -10 23 -10 18 0 19 2 7 10 -19 13 -30 13 -30 0z"/>
<path d="M4370 3566 c0 -9 7 -16 16 -16 9 0 14 5 12 12 -6 18 -28 21 -28 4z"/>
<path d="M4370 3523 c0 -10 51 -53 62 -53 15 0 8 16 -15 38 -23 22 -47 29 -47
15z"/>
<path d="M4551 3523 c-1 -15 56 -46 69 -38 17 11 0 25 -30 25 -15 0 -31 6 -33
13 -4 9 -6 9 -6 0z"/>
<path d="M4552 3456 c7 -8 15 -12 17 -11 5 6 -10 25 -20 25 -5 0 -4 -6 3 -14z"/>
<path d="M4320 3440 c0 -4 9 -10 20 -13 11 -3 20 -2 20 3 0 4 -9 10 -20 13
-11 3 -20 2 -20 -3z"/>
<path d="M4505 3310 c3 -5 13 -10 21 -10 8 0 12 5 9 10 -3 6 -13 10 -21 10 -8
0 -12 -4 -9 -10z"/>
<path d="M3972 3370 c5 -18 48 -26 48 -10 0 7 -6 10 -14 7 -7 -3 -19 0 -26 6
-10 9 -11 9 -8 -3z"/>
<path d="M3585 3110 c3 -5 8 -10 11 -10 2 0 4 5 4 10 0 6 -5 10 -11 10 -5 0
-7 -4 -4 -10z"/>
<path d="M3440 2730 c0 -5 10 -10 23 -10 18 0 19 2 7 10 -19 13 -30 13 -30 0z"/>
<path d="M4340 2493 c0 -13 49 -35 61 -27 6 3 17 0 25 -7 8 -6 18 -9 22 -5 8
8 -24 30 -48 33 -8 1 -25 5 -37 9 -13 3 -23 2 -23 -3z"/>
<path d="M4245 2480 c3 -5 14 -10 23 -10 15 0 15 2 2 10 -20 13 -33 13 -25 0z"/>
<path d="M4320 2452 c0 -12 78 -37 87 -29 3 4 -3 7 -13 7 -11 0 -29 7 -40 15
-22 16 -34 19 -34 7z"/>
<path d="M4480 2440 c0 -5 5 -10 11 -10 5 0 7 5 4 10 -3 6 -8 10 -11 10 -2 0
-4 -4 -4 -10z"/>
<path d="M4290 2396 c0 -2 9 -6 20 -9 11 -3 18 -1 14 4 -5 9 -34 13 -34 5z"/>
<path d="M4462 2373 c-6 -3 -10 -9 -6 -14 7 -12 44 -12 44 0 0 11 -21 19 -38
14z"/>
<path d="M4346 2340 c6 -6 22 -13 35 -15 13 -1 48 -8 77 -15 28 -6 58 -9 65
-7 6 3 3 6 -8 6 -11 1 -33 8 -48 16 -38 19 -137 32 -121 15z"/>
<path d="M4800 2190 c0 -5 5 -10 11 -10 5 0 7 5 4 10 -3 6 -8 10 -11 10 -2 0
-4 -4 -4 -10z"/>
<path d="M5665 2560 c-3 -4 2 -11 11 -14 22 -8 34 -7 34 3 0 12 -39 21 -45 11z"/>
<path d="M3888 2493 c6 -2 18 -2 25 0 6 3 1 5 -13 5 -14 0 -19 -2 -12 -5z"/>
<path d="M6690 1414 c0 -3 7 -12 15 -20 16 -17 18 -14 9 10 -6 15 -24 23 -24
10z"/>
<path d="M6480 1250 c0 -5 5 -10 10 -10 6 0 10 5 10 10 0 6 -4 10 -10 10 -5 0
-10 -4 -10 -10z"/>
<path d="M6576 1188 c-17 -20 -23 -35 -17 -41 6 -6 13 -2 20 11 6 11 18 27 26
36 8 8 11 17 7 20 -5 3 -21 -9 -36 -26z"/>
<path d="M6472 1118 c-14 -14 -16 -28 -3 -28 9 0 24 30 18 36 -2 2 -9 -2 -15
-8z"/>
<path d="M2403 5375 c-15 -16 -17 -41 -4 -49 12 -8 54 41 46 53 -9 15 -27 13
-42 -4z"/>
<path d="M2328 5342 c-26 -30 -29 -40 -11 -37 10 2 21 4 24 4 10 1 18 40 9 46
-4 2 -14 -3 -22 -13z"/>
<path d="M2631 5336 c-11 -13 -11 -17 2 -22 27 -10 72 0 72 16 0 21 -58 25
-74 6z"/>
<path d="M2725 5310 c3 -5 10 -10 16 -10 5 0 9 5 9 10 0 6 -7 10 -16 10 -8 0
-12 -4 -9 -10z"/>
<path d="M2546 5268 c-4 -21 -12 -38 -17 -38 -16 0 -10 -77 6 -84 22 -8 26 10
23 90 -3 64 -4 66 -12 32z"/>
<path d="M6100 5248 c0 -27 4 -48 9 -48 15 0 18 34 5 65 l-13 30 -1 -47z"/>
<path d="M5181 5241 c-6 -11 -11 -27 -11 -36 0 -11 -5 -15 -15 -11 -18 6 -19
1 -5 -24 8 -15 4 -20 -30 -34 -32 -13 -40 -21 -40 -41 0 -14 6 -25 13 -25 7 0
4 -7 -7 -15 -19 -15 -19 -15 2 -15 15 0 20 -5 16 -15 -10 -25 7 -40 23 -20 19
26 16 63 -4 68 -15 4 -14 5 3 6 12 1 27 13 35 29 7 15 24 44 37 64 24 37 26
78 5 85 -6 2 -16 -5 -22 -16z"/>
<path d="M6213 5233 c-7 -2 -13 -9 -13 -15 0 -7 4 -7 13 0 6 5 21 12 32 15
l20 5 -20 0 c-11 0 -26 -2 -32 -5z"/>
<path d="M2915 5220 c-11 -5 -46 -14 -77 -20 -48 -9 -58 -15 -58 -32 0 -15 4
-18 18 -13 9 4 42 16 72 27 30 11 62 27 70 34 16 16 5 17 -25 4z"/>
<path d="M6172 5195 c-17 -37 -14 -45 4 -12 9 16 14 31 11 33 -2 2 -9 -7 -15
-21z"/>
<path d="M6309 5194 c16 -14 44 -50 61 -80 37 -64 46 -70 21 -14 -20 45 -83
120 -101 120 -6 0 2 -11 19 -26z"/>
<path d="M2590 5191 c0 -11 5 -23 10 -26 6 -4 10 5 10 19 0 14 -4 26 -10 26
-5 0 -10 -9 -10 -19z"/>
<path d="M3588 5203 c6 -2 18 -2 25 0 6 3 1 5 -13 5 -14 0 -19 -2 -12 -5z"/>
<path d="M4622 5184 c-27 -18 -29 -34 -4 -34 21 0 42 18 42 37 0 17 -11 16
-38 -3z"/>
<path d="M6040 5187 c0 -14 25 -47 36 -47 4 0 -18 38 -33 59 -2 2 -3 -3 -3
-12z"/>
<path d="M4280 5146 c0 -9 5 -16 10 -16 6 0 10 4 10 9 0 6 -4 13 -10 16 -5 3
-10 -1 -10 -9z"/>
<path d="M2680 5135 c0 -8 4 -15 9 -15 5 0 11 7 15 15 3 9 0 15 -9 15 -8 0
-15 -7 -15 -15z"/>
<path d="M4222 5141 c4 -13 18 -16 19 -4 0 4 -5 9 -11 12 -7 2 -11 -2 -8 -8z"/>
<path d="M6246 5065 c-25 -47 -46 -87 -46 -90 0 -3 24 -31 53 -63 30 -32 80
-93 111 -135 55 -72 59 -83 92 -214 39 -155 86 -295 101 -300 5 -2 17 24 27
58 9 33 28 83 42 110 l24 49 -44 68 c-25 37 -53 76 -62 87 -15 19 -15 18 -1
-6 30 -50 31 -96 6 -160 -13 -32 -27 -59 -31 -59 -9 0 -39 102 -73 243 -33
141 -55 183 -152 287 -39 41 -39 48 -13 100 22 43 29 47 48 28 7 -7 12 -9 12
-5 0 10 -39 87 -44 87 -2 0 -25 -38 -50 -85z"/>
<path d="M2620 5120 c0 -5 7 -10 15 -10 8 0 15 5 15 10 0 6 -7 10 -15 10 -8 0
-15 -4 -15 -10z"/>
<path d="M5033 5113 c-9 -15 -13 -16 -24 -5 -20 19 -31 14 -19 -8 9 -17 8 -20
-13 -20 -12 0 -28 5 -35 12 -9 9 -12 8 -12 -6 0 -12 -7 -17 -22 -15 -25 4 -48
-7 -48 -22 0 -5 9 -9 20 -9 11 0 20 -7 20 -15 0 -23 37 -18 43 6 3 12 10 18
17 14 6 -3 26 -1 45 5 27 9 35 17 35 36 0 13 5 24 10 24 6 0 10 5 10 10 0 16
-14 12 -27 -7z"/>
<path d="M3860 5110 c0 -5 5 -10 10 -10 6 0 10 5 10 10 0 6 -4 10 -10 10 -5 0
-10 -4 -10 -10z"/>
<path d="M6161 5054 c0 -11 3 -14 6 -6 3 7 2 16 -1 19 -3 4 -6 -2 -5 -13z"/>
<path d="M2585 5050 c-4 -6 -3 -16 3 -22 6 -6 12 -6 17 2 4 6 3 16 -3 22 -6 6
-12 6 -17 -2z"/>
<path d="M4820 5050 c0 -5 5 -10 10 -10 6 0 10 5 10 10 0 6 -4 10 -10 10 -5 0
-10 -4 -10 -10z"/>
<path d="M2684 5039 c-4 -7 1 -18 11 -26 27 -19 37 -16 33 9 -3 25 -32 36 -44
17z"/>
<path d="M6357 5015 c9 -19 18 -33 21 -31 4 5 -26 66 -33 66 -3 0 3 -16 12
-35z"/>
<path d="M2397 5005 c-9 -21 7 -32 29 -20 l22 11 -24 11 c-17 8 -24 8 -27 -2z"/>
<path d="M4212 4999 c-26 -21 -22 -40 7 -32 22 6 32 25 23 40 -5 7 -15 5 -30
-8z"/>
<path d="M3120 5001 c0 -6 4 -12 9 -15 13 -8 42 4 35 15 -7 12 -44 12 -44 0z"/>
<path d="M3049 4982 c17 -31 48 -55 56 -42 5 7 -4 22 -21 36 -35 28 -48 30
-35 6z"/>
<path d="M6182 4960 c0 -14 2 -19 5 -12 2 6 2 18 0 25 -3 6 -5 1 -5 -13z"/>
<path d="M3470 4955 c0 -16 16 -20 24 -6 3 5 -1 11 -9 15 -9 3 -15 0 -15 -9z"/>
<path d="M3795 4960 c3 -5 10 -10 16 -10 5 0 9 5 9 10 0 6 -7 10 -16 10 -8 0
-12 -4 -9 -10z"/>
<path d="M2550 4955 c0 -5 5 -17 10 -25 5 -8 10 -10 10 -5 0 6 -5 17 -10 25
-5 8 -10 11 -10 5z"/>
<path d="M2680 4945 c0 -8 5 -15 10 -15 6 0 10 7 10 15 0 8 -4 15 -10 15 -5 0
-10 -7 -10 -15z"/>
<path d="M2770 4941 c0 -5 7 -11 15 -15 9 -3 15 0 15 9 0 8 -7 15 -15 15 -8 0
-15 -4 -15 -9z"/>
<path d="M2844 4926 c-3 -9 -14 -16 -24 -16 -21 0 -44 -25 -35 -39 6 -10 42 4
55 20 20 26 90 -4 90 -38 0 -16 -17 -17 -23 0 -2 6 -8 8 -13 4 -12 -11 8 -38
35 -49 19 -7 22 -5 17 8 -5 12 -2 15 10 10 13 -5 14 -4 6 7 -6 7 -9 22 -6 33
11 40 -97 98 -112 60z"/>
<path d="M3120 4920 c0 -5 7 -10 15 -10 8 0 15 5 15 10 0 6 -7 10 -15 10 -8 0
-15 -4 -15 -10z"/>
<path d="M3410 4912 c0 -10 6 -26 13 -36 12 -17 14 -15 15 18 1 26 -3 36 -13
36 -8 0 -15 -8 -15 -18z"/>
<path d="M4115 4920 c-3 -5 -1 -10 4 -10 6 0 11 5 11 10 0 6 -2 10 -4 10 -3 0
-8 -4 -11 -10z"/>
<path d="M6425 4920 c-3 -5 -1 -10 4 -10 6 0 11 5 11 10 0 6 -2 10 -4 10 -3 0
-8 -4 -11 -10z"/>
<path d="M3878 4913 c7 -3 16 -2 19 1 4 3 -2 6 -13 5 -11 0 -14 -3 -6 -6z"/>
<path d="M6196 4900 c3 -14 11 -32 16 -40 6 -10 7 -7 2 10 -3 14 -11 32 -16
40 -6 10 -7 7 -2 -10z"/>
<path d="M6487 4885 c9 -19 18 -33 21 -31 4 5 -26 66 -33 66 -3 0 3 -16 12
-35z"/>
<path d="M3058 4893 c-21 -9 -38 -20 -38 -25 0 -6 8 -7 18 -3 9 4 27 10 39 12
12 3 24 11 27 19 6 17 2 17 -46 -3z"/>
<path d="M3794 4895 c22 -17 46 -20 46 -6 0 10 -25 21 -48 21 -15 -1 -14 -3 2
-15z"/>
<path d="M2755 4870 c-3 -5 -1 -10 4 -10 6 0 11 5 11 10 0 6 -2 10 -4 10 -3 0
-8 -4 -11 -10z"/>
<path d="M3790 4864 c0 -8 5 -12 10 -9 6 3 10 10 10 16 0 5 -4 9 -10 9 -5 0
-10 -7 -10 -16z"/>
<path d="M2690 4855 c-14 -16 -10 -18 14 -9 9 3 16 10 16 15 0 14 -16 11 -30
-6z"/>
<path d="M3178 4863 c7 -3 16 -2 19 1 4 3 -2 6 -13 5 -11 0 -14 -3 -6 -6z"/>
<path d="M3074 4828 c-10 -16 4 -22 28 -11 l22 10 -22 5 c-12 4 -25 2 -28 -4z"/>
<path d="M4127 4815 c-4 -8 -2 -17 3 -20 6 -4 10 3 10 14 0 25 -6 27 -13 6z"/>
<path d="M3702 4798 c-15 -15 3 -38 30 -38 11 0 26 -7 34 -15 9 -8 20 -15 25
-15 16 0 10 20 -8 27 -23 9 -43 29 -43 42 0 15 -23 14 -38 -1z"/>
<path d="M4251 4784 c15 -16 25 -21 28 -13 2 7 -4 18 -15 26 -30 22 -39 15
-13 -13z"/>
<path d="M6540 4790 c6 -11 13 -20 16 -20 2 0 0 9 -6 20 -6 11 -13 20 -16 20
-2 0 0 -9 6 -20z"/>
<path d="M3039 4744 c-11 -22 -11 -27 1 -34 23 -15 34 -12 48 11 7 12 12 22
10 22 -2 1 -13 7 -24 14 -19 10 -23 8 -35 -13z"/>
<path d="M3320 4736 c0 -9 5 -16 10 -16 6 0 10 4 10 9 0 6 -4 13 -10 16 -5 3
-10 -1 -10 -9z"/>
<path d="M4317 4743 c-29 -29 23 -45 59 -18 20 15 8 21 -15 6 -8 -5 -21 -7
-29 -3 -13 4 -12 7 4 13 14 6 15 8 3 8 -9 1 -19 -2 -22 -6z"/>
<path d="M3440 4723 c0 -1 8 -7 18 -12 13 -7 32 -6 63 4 l44 14 -62 -2 c-35
-1 -63 -3 -63 -4z"/>
<path d="M4435 4710 c3 -5 11 -10 16 -10 6 0 7 5 4 10 -3 6 -11 10 -16 10 -6
0 -7 -4 -4 -10z"/>
<path d="M6266 4690 c4 -19 11 -44 15 -55 6 -14 7 -9 3 15 -4 19 -11 44 -15
55 -6 14 -7 9 -3 -15z"/>
<path d="M4385 4700 c3 -5 8 -10 11 -10 2 0 4 5 4 10 0 6 -5 10 -11 10 -5 0
-7 -4 -4 -10z"/>
<path d="M3000 4671 c0 -17 15 -19 28 -5 11 12 9 14 -8 14 -11 0 -20 -4 -20
-9z"/>
<path d="M3350 4651 c0 -5 5 -13 10 -16 6 -3 10 -2 10 4 0 5 -4 13 -10 16 -5
3 -10 2 -10 -4z"/>
<path d="M3031 4634 c0 -11 3 -14 6 -6 3 7 2 16 -1 19 -3 4 -6 -2 -5 -13z"/>
<path d="M6640 4645 c0 -5 5 -17 10 -25 5 -8 10 -10 10 -5 0 6 -5 17 -10 25
-5 8 -10 11 -10 5z"/>
<path d="M6131 4614 c0 -11 3 -14 6 -6 3 7 2 16 -1 19 -3 4 -6 -2 -5 -13z"/>
<path d="M2906 4611 c-9 -15 23 -36 35 -24 8 8 5 14 -9 22 -12 6 -23 7 -26 2z"/>
<path d="M4172 4584 c-17 -18 -15 -49 3 -64 9 -7 14 -19 11 -26 -3 -7 8 -17
25 -24 16 -7 29 -18 29 -25 0 -7 7 -15 15 -19 12 -4 14 0 9 22 -9 38 -13 42
-35 42 -11 0 -17 5 -14 10 3 6 2 10 -2 10 -12 0 -15 48 -3 55 15 10 12 22 -8
27 -10 3 -23 -1 -30 -8z"/>
<path d="M3140 4580 c0 -5 7 -10 16 -10 8 0 12 5 9 10 -3 6 -10 10 -16 10 -5
0 -9 -4 -9 -10z"/>
<path d="M3293 4583 c-21 -8 -15 -33 7 -33 13 0 20 7 20 20 0 20 -5 23 -27 13z"/>
<path d="M4240 4585 c1 -17 49 -70 57 -62 4 4 -7 22 -25 40 -18 17 -32 27 -32
22z"/>
<path d="M3195 4570 c3 -5 17 -10 31 -10 14 0 22 4 19 10 -3 6 -17 10 -31 10
-14 0 -22 -4 -19 -10z"/>
<path d="M6241 4544 c0 -11 3 -14 6 -6 3 7 2 16 -1 19 -3 4 -6 -2 -5 -13z"/>
<path d="M4230 4528 c0 -10 10 -23 22 -29 29 -16 57 -50 58 -71 0 -10 10 -18
25 -20 14 -2 25 -7 25 -13 -1 -5 9 -12 21 -15 12 -3 25 -12 27 -19 7 -21 -79
-3 -98 22 -13 15 -23 18 -43 13 -39 -9 -33 -22 18 -36 30 -8 53 -23 66 -41 20
-28 49 -39 49 -19 0 9 88 -34 100 -49 6 -7 47 -26 74 -35 19 -7 46 9 46 26 0
6 -7 7 -16 4 -18 -7 -121 21 -130 35 -3 5 -2 9 3 8 29 -5 52 4 58 21 11 33 34
51 61 44 27 -7 30 0 12 21 -11 11 -18 10 -46 -7 -27 -17 -37 -18 -64 -9 -17 6
-42 11 -54 11 -13 0 -24 4 -24 9 0 5 -9 13 -20 16 -11 3 -20 10 -20 15 0 15
-91 100 -108 100 -8 0 -21 8 -28 18 -12 16 -13 16 -14 0z"/>
<path d="M3525 4510 c-3 -5 -1 -10 4 -10 6 0 11 5 11 10 0 6 -2 10 -4 10 -3 0
-8 -4 -11 -10z"/>
<path d="M6190 4510 c0 -5 5 -10 10 -10 6 0 10 5 10 10 0 6 -4 10 -10 10 -5 0
-10 -4 -10 -10z"/>
<path d="M2970 4504 c0 -17 65 -67 90 -69 44 -4 27 32 -21 45 -22 6 -39 15
-39 20 0 6 -7 10 -15 10 -8 0 -15 -3 -15 -6z"/>
<path d="M3116 4495 c4 -8 11 -15 16 -15 6 0 5 6 -2 15 -7 8 -14 15 -16 15 -2
0 -1 -7 2 -15z"/>
<path d="M6321 4500 c0 -8 4 -22 9 -30 12 -18 12 -2 0 25 -6 13 -9 15 -9 5z"/>
<path d="M4522 4479 c2 -7 10 -15 17 -17 8 -3 12 1 9 9 -2 7 -10 15 -17 17 -8
3 -12 -1 -9 -9z"/>
<path d="M4080 4445 c7 -8 22 -15 34 -16 20 0 20 -1 1 -9 -18 -7 -18 -8 -3
-15 11 -4 24 -1 32 8 14 13 12 17 -18 31 -45 21 -63 21 -46 1z"/>
<path d="M6251 4444 c0 -11 3 -14 6 -6 3 7 2 16 -1 19 -3 4 -6 -2 -5 -13z"/>
<path d="M4590 4440 c0 -5 7 -10 15 -10 8 0 15 5 15 10 0 6 -7 10 -15 10 -8 0
-15 -4 -15 -10z"/>
<path d="M6341 4445 c0 -5 8 -26 19 -45 11 -19 19 -30 19 -25 0 6 -8 26 -19
45 -11 19 -19 31 -19 25z"/>
<path d="M4400 4430 c0 -5 5 -10 10 -10 6 0 10 -6 10 -14 0 -17 30 -30 42 -18
6 6 -2 18 -18 31 -29 23 -44 27 -44 11z"/>
<path d="M3585 4420 c-3 -5 3 -10 14 -10 12 0 21 5 21 10 0 6 -6 10 -14 10 -8
0 -18 -4 -21 -10z"/>
<path d="M4487 4413 c-9 -9 24 -32 47 -33 16 0 15 3 -7 20 -28 22 -31 23 -40
13z"/>
<path d="M3120 4396 c0 -21 20 -30 33 -17 9 9 8 14 -3 21 -21 14 -30 12 -30
-4z"/>
<path d="M4175 4400 c3 -5 15 -10 26 -10 11 0 17 5 14 10 -3 6 -15 10 -26 10
-11 0 -17 -4 -14 -10z"/>
<path d="M6722 4370 c0 -19 2 -27 5 -17 2 9 2 25 0 35 -3 9 -5 1 -5 -18z"/>
<path d="M4150 4381 c0 -5 5 -13 10 -16 6 -3 10 -2 10 4 0 5 -4 13 -10 16 -5
3 -10 2 -10 -4z"/>
<path d="M4815 4380 c-3 -5 1 -10 10 -10 9 0 13 5 10 10 -3 6 -8 10 -10 10 -2
0 -7 -4 -10 -10z"/>
<path d="M4720 4362 c0 -8 74 -42 92 -42 8 0 8 5 -2 14 -17 16 -90 38 -90 28z"/>
<path d="M3315 4350 c3 -5 8 -10 11 -10 2 0 4 5 4 10 0 6 -5 10 -11 10 -5 0
-7 -4 -4 -10z"/>
<path d="M6395 4337 c10 -15 20 -25 23 -22 3 3 -5 16 -17 28 l-23 22 17 -28z"/>
<path d="M6721 4314 c0 -11 3 -14 6 -6 3 7 2 16 -1 19 -3 4 -6 -2 -5 -13z"/>
<path d="M6430 4297 c0 -2 14 -16 30 -30 17 -15 30 -23 30 -19 0 5 -13 18 -30
30 -16 13 -30 21 -30 19z"/>
<path d="M6711 4243 c0 -12 -5 -25 -11 -28 -5 -3 -10 -16 -9 -28 0 -18 3 -16
15 12 8 18 13 41 11 50 -3 11 -5 9 -6 -6z"/>
<path d="M4558 4188 c5 -5 16 -8 23 -6 8 3 3 7 -10 11 -17 4 -21 3 -13 -5z"/>
<path d="M6630 4170 c18 -12 30 -13 30 -2 0 4 -10 9 -22 9 -18 2 -20 0 -8 -7z"/>
<path d="M6951 4064 c0 -11 3 -14 6 -6 3 7 2 16 -1 19 -3 4 -6 -2 -5 -13z"/>
<path d="M4914 3995 c9 -39 37 -68 51 -52 7 9 0 22 -24 47 l-33 35 6 -30z"/>
<path d="M6980 3948 c0 -62 18 -55 27 11 5 33 3 41 -11 41 -13 0 -16 -11 -16
-52z"/>
<path d="M5018 3973 c7 -3 16 -2 19 1 4 3 -2 6 -13 5 -11 0 -14 -3 -6 -6z"/>
<path d="M6790 3905 c0 -5 5 -17 10 -25 5 -8 10 -10 10 -5 0 6 -5 17 -10 25
-5 8 -10 11 -10 5z"/>
<path d="M5015 3880 c10 -11 15 -20 10 -20 -4 0 -2 -7 5 -15 17 -20 27 -19 25
3 -4 33 -17 52 -38 52 -19 0 -20 -1 -2 -20z"/>
<path d="M4920 3882 c0 -12 69 -46 78 -38 9 10 -10 26 -32 26 -12 0 -27 5 -34
12 -9 9 -12 9 -12 0z"/>
<path d="M5038 3783 c7 -3 16 -2 19 1 4 3 -2 6 -13 5 -11 0 -14 -3 -6 -6z"/>
<path d="M5140 3770 c13 -11 28 -20 34 -20 14 1 -32 40 -47 40 -5 0 0 -9 13
-20z"/>
<path d="M6684 3749 c-3 -6 -1 -16 5 -22 8 -8 11 -5 11 11 0 24 -5 28 -16 11z"/>
<path d="M4786 3706 c3 -9 11 -16 16 -16 13 0 5 23 -10 28 -7 2 -10 -2 -6 -12z"/>
<path d="M4880 3710 c0 -5 5 -10 11 -10 5 0 7 5 4 10 -3 6 -8 10 -11 10 -2 0
-4 -4 -4 -10z"/>
<path d="M4925 3690 c3 -5 31 -22 62 -36 40 -19 51 -29 42 -35 -13 -8 -12 -10
10 -13 5 0 13 -4 17 -8 12 -13 34 -9 40 7 6 14 -29 69 -38 60 -2 -3 -28 4 -56
15 -57 22 -87 26 -77 10z"/>
<path d="M6652 3678 c7 -20 48 -23 48 -4 0 11 -9 16 -26 16 -16 0 -24 -5 -22
-12z"/>
<path d="M4880 3665 c0 -2 10 -10 23 -16 20 -11 21 -11 8 4 -13 16 -31 23 -31
12z"/>
<path d="M5088 3303 c7 -3 16 -2 19 1 4 3 -2 6 -13 5 -11 0 -14 -3 -6 -6z"/>
<path d="M5223 3303 c9 -2 23 -2 30 0 6 3 -1 5 -18 5 -16 0 -22 -2 -12 -5z"/>
<path d="M5406 3229 c3 -5 11 -9 19 -9 7 0 15 -4 17 -10 3 -11 98 -49 138 -56
19 -4 15 1 -15 17 -22 12 -41 26 -43 30 -2 5 -19 9 -37 9 -19 0 -36 4 -39 9
-3 5 -15 11 -26 14 -11 3 -18 1 -14 -4z"/>
<path d="M6360 3236 c0 -2 9 -6 20 -9 11 -3 20 -1 20 4 0 5 -9 9 -20 9 -11 0
-20 -2 -20 -4z"/>
<path d="M5120 3216 c0 -15 37 -32 47 -23 2 3 -5 8 -16 12 -12 3 -19 11 -16
16 4 5 1 9 -4 9 -6 0 -11 -6 -11 -14z"/>
<path d="M5186 3201 c-6 -10 37 -31 64 -31 28 0 25 19 -6 30 -31 12 -51 13
-58 1z"/>
<path d="M6298 3203 c7 -3 16 -2 19 1 4 3 -2 6 -13 5 -11 0 -14 -3 -6 -6z"/>
<path d="M5455 3150 c11 -5 27 -9 35 -9 13 -1 13 0 0 9 -8 5 -24 9 -35 9 l-20
0 20 -9z"/>
<path d="M5985 3150 c-3 -5 -1 -10 4 -10 6 0 11 5 11 10 0 6 -2 10 -4 10 -3 0
-8 -4 -11 -10z"/>
<path d="M6278 3143 c23 -2 61 -2 85 0 23 2 4 4 -43 4 -47 0 -66 -2 -42 -4z"/>
<path d="M5590 3130 c-13 -8 -12 -10 3 -10 9 0 17 5 17 10 0 12 -1 12 -20 0z"/>
<path d="M5520 3119 c0 -5 -7 -9 -17 -9 -9 0 -14 -3 -11 -6 3 -3 21 -1 39 4
31 7 32 9 12 14 -13 3 -23 2 -23 -3z"/>
<path d="M6225 3120 c-3 -5 -1 -10 4 -10 6 0 11 5 11 10 0 6 -2 10 -4 10 -3 0
-8 -4 -11 -10z"/>
<path d="M5745 3110 c3 -5 8 -10 11 -10 2 0 4 5 4 10 0 6 -5 10 -11 10 -5 0
-7 -4 -4 -10z"/>
<path d="M6340 2335 c0 -8 4 -15 9 -15 5 0 11 7 15 15 3 9 0 15 -9 15 -8 0
-15 -7 -15 -15z"/>
<path d="M5664 2309 c-3 -6 0 -18 9 -26 13 -13 14 -12 10 11 -6 29 -9 31 -19
15z"/>
<path d="M5750 2300 c0 -5 5 -10 10 -10 6 0 10 5 10 10 0 6 -4 10 -10 10 -5 0
-10 -4 -10 -10z"/>
<path d="M6268 2233 c7 -3 16 -2 19 1 4 3 -2 6 -13 5 -11 0 -14 -3 -6 -6z"/>
<path d="M5870 2212 c0 -7 7 -26 15 -43 9 -16 25 -59 36 -94 11 -36 22 -65 24
-65 6 0 -7 74 -15 85 -4 6 -11 24 -14 40 -7 33 -46 98 -46 77z"/>
<path d="M6240 1466 c0 -9 7 -12 21 -9 16 4 17 8 7 14 -19 13 -28 11 -28 -5z"/>
<path d="M5818 843 c7 -3 16 -2 19 1 4 3 -2 6 -13 5 -11 0 -14 -3 -6 -6z"/>
</g>
</svg>
